<svg xmlns="http://www.w3.org/2000/svg" version="1.1" xmlns:xlink="http://www.w3.org/1999/xlink" xmlns:svgjs="http://svgjs.dev/svgjs" width="1500" height="431" viewBox="0 0 1500 431"><g transform="matrix(1,0,0,1,-0.9090909090909918,-0.8731273611767278)"><svg viewBox="0 0 396 114" data-background-color="#ffffff" preserveAspectRatio="xMidYMid meet" height="431" width="1500" xmlns="http://www.w3.org/2000/svg" xmlns:xlink="http://www.w3.org/1999/xlink"><g id="tight-bounds" transform="matrix(1,0,0,1,0.2400000000000091,0.23094319994001467)"><svg viewBox="0 0 395.52 113.53811360011998" height="113.53811360011998" width="395.52"><g><svg viewBox="0 0 660.0229604134752 189.46642864611812" height="113.53811360011998" width="395.52"><g transform="matrix(1,0,0,1,264.50296041347514,52.2223271225915)"><svg viewBox="0 0 395.52 85.02177440093512" height="85.02177440093512" width="395.52"><g id="textblocktransform"><svg viewBox="0 0 395.52 85.02177440093512" height="85.02177440093512" width="395.52" id="textblock"><g><svg viewBox="0 0 395.52 85.02177440093512" height="85.02177440093512" width="395.52"><g transform="matrix(1,0,0,1,0,0)"><svg width="395.52" viewBox="-10.06 -38.55 208.84 44.9" height="85.02177440093512" data-palette-color="url(#dce61f03-5e2a-45d9-8077-5ccf28e63fe1)"></svg></g></svg></g></svg></g></svg></g><g><svg viewBox="0 0 244.43135999999998 189.46642864611812" height="189.46642864611812" width="244.43135999999998"><g><svg xmlns="http://www.w3.org/2000/svg" xmlns:xlink="http://www.w3.org/1999/xlink" version="1.1" x="0" y="0" viewBox="4.823 14.981 90.35499999999999 70.037" enable-background="new 0 0 100 100" xml:space="preserve" height="189.46642864611812" width="244.43135999999998" class="icon-icon-0" data-fill-palette-color="accent" id="icon-0"></svg></g></svg></g></svg></g><defs></defs><mask id="44d04bc3-30b5-4eb2-a7b9-3d37e9d8bc53"><g id="SvgjsG1835"><svg viewBox="0 0 395.52 113.53811360011998" height="113.53811360011998" width="395.52"><g><svg viewBox="0 0 660.0229604134752 189.46642864611812" height="113.53811360011998" width="395.52"><g transform="matrix(1,0,0,1,264.50296041347514,52.2223271225915)"><svg viewBox="0 0 395.52 85.02177440093512" height="85.02177440093512" width="395.52"><g id="SvgjsG1834"><svg viewBox="0 0 395.52 85.02177440093512" height="85.02177440093512" width="395.52" id="SvgjsSvg1833"><g><svg viewBox="0 0 395.52 85.02177440093512" height="85.02177440093512" width="395.52"><g transform="matrix(1,0,0,1,0,0)"><svg width="395.52" viewBox="-10.06 -38.55 208.84 44.9" height="85.02177440093512" data-palette-color="url(#dce61f03-5e2a-45d9-8077-5ccf28e63fe1)"><path d="M-8.91 6.35L-8.91 6.35Q-9.42 6.35-9.74 5.64-10.06 4.93-10.06 3L-10.06 3Q-10.06 2-9.2 1.39-8.35 0.78-7.01 0.28-5.66-0.22-4.13-0.85-2.59-1.49-1.17-2.5 0.24-3.52 1.2-5.2L1.2-5.2Q2.59-8.18 4.36-11.9 6.13-15.63 8.01-19.58 9.89-23.54 11.67-27.26 13.45-30.98 14.84-33.96L14.84-33.96Q15.84-35.79 17.77-36.95 19.7-38.11 21.85-38.11L21.85-38.11 22.14-37.94Q21.29-31.49 21-24.94 20.7-18.38 20.29-11.84L20.29-11.84 20.65-11.84Q21.85-14.23 22.71-15.89 23.56-17.55 24.37-19.1 25.17-20.65 26.17-22.62 27.17-24.58 28.64-27.51 30.1-30.44 32.3-34.91L32.3-34.91Q32.64-35.47 33.53-36.1 34.42-36.72 35.55-37.27 36.67-37.82 37.73-38.17 38.79-38.53 39.45-38.55L39.45-38.55Q39.45-38.53 39.54-38.51 39.62-38.5 39.65-38.45L39.65-38.45Q39.04-35.25 38.33-31.58 37.62-27.91 36.94-24.16 36.25-20.41 35.69-16.91 35.13-13.4 34.79-10.53 34.45-7.67 34.45-5.81L34.45-5.81Q34.45-3.44 35.6-3.44L35.6-3.44Q36.18-3.44 37.33-4.22 38.48-5 39.86-6.19 41.24-7.37 42.54-8.59 43.85-9.81 44.75-10.69L44.75-10.69 44.75-7.91Q42.09-5.32 39.55-3.22 37.01-1.12 34.9 0.11 32.79 1.34 31.35 1.34L31.35 1.34Q30.03 1.34 29.31 0.16 28.59-1.03 28.59-3.76L28.59-3.76Q28.59-5.93 28.92-8.7 29.25-11.47 29.74-14.43 30.22-17.38 30.75-20.14 31.27-22.9 31.64-25.05L31.64-25.05Q31.74-25.81 31.93-26.78 32.13-27.76 32.31-28.58 32.5-29.39 32.5-29.64L32.5-29.64Q32.5-30.05 32.25-30.05L32.25-30.05Q31.91-30.05 31.81-29.76L31.81-29.76Q31.3-28.76 30.25-26.68 29.2-24.61 27.8-21.88 26.39-19.14 24.84-16.14 23.29-13.13 21.78-10.25 20.26-7.37 18.96-5 17.65-2.64 16.76-1.17 15.87 0.29 15.6 0.44L15.6 0.44Q14.84 0.22 14.58-0.23 14.31-0.68 14.31-1L14.31-1 14.99-27.54 14.65-27.54 2.95-3.2Q2.22-1.88 0.88-0.24-0.46 1.39-2.15 2.89-3.83 4.39-5.59 5.37-7.35 6.35-8.91 6.35ZM48.92 0.76L48.92 0.76Q45.97 0.76 44.21-1.2 42.45-3.15 42.45-6.3L42.45-6.3Q42.45-8.94 43.32-11.47 44.19-14.01 45.79-16.05 47.39-18.09 49.58-19.3 51.78-20.51 54.44-20.51L54.44-20.51Q56.83-20.51 58.52-19.58 60.2-18.65 60.2-16.21L60.2-16.21Q60.2-14.33 59.14-12.76 58.08-11.18 56.42-10.24 54.76-9.3 52.9-9.3L52.9-9.3Q51.88-9.3 50.64-9.91 49.41-10.52 48.48-11.94L48.48-11.94Q47.43-9.74 47.43-7.64L47.43-7.64Q47.43-6.18 47.79-4.9 48.14-3.61 49.05-2.81 49.95-2 51.54-2L51.54-2Q52.68-2 54.1-2.93 55.52-3.86 57.03-5.26 58.54-6.67 59.98-8.13 61.42-9.59 62.6-10.69L62.6-10.69 62.6-8.01Q59.23-4.05 55.87-1.65 52.51 0.76 48.92 0.76ZM53.29-11.4L53.29-11.4Q54.73-11.4 55.76-12.82 56.78-14.23 56.78-15.94L56.78-15.94Q56.78-17.33 56.17-17.82 55.56-18.31 54.49-18.31L54.49-18.31Q53.05-18.31 51.95-17.48 50.85-16.65 50.16-15.59 49.46-14.53 49.19-13.79L49.19-13.79Q50.05-12.67 51.13-12.04 52.22-11.4 53.29-11.4ZM63.54 0.71L63.54 0.71Q62.13 0.71 61.41-0.16 60.69-1.03 60.44-2.22 60.2-3.42 60.2-4.44L60.2-4.44Q60.2-7.08 61.37-9.9 62.54-12.72 64.46-15.12 66.38-17.53 68.68-19.02 70.99-20.51 73.26-20.51L73.26-20.51Q74.46-20.51 75.21-20.32 75.97-20.14 76.46-20L76.46-20 79.71-31.59Q80.12-33.25 80.51-34.13 80.9-35.01 81.87-35.33 82.83-35.64 84.91-35.64L84.91-35.64 85.76-35.64Q85.74-35.33 85.46-34.22 85.18-33.11 84.91-32.25L84.91-32.25Q84.52-31.08 83.87-28.93 83.22-26.78 82.44-24.11 81.66-21.44 80.89-18.63 80.12-15.82 79.47-13.29 78.83-10.77 78.44-8.94 78.05-7.1 78.05-6.4L78.05-6.4Q78.05-5.47 78.23-5.16 78.41-4.86 78.8-4.86L78.8-4.86Q79.41-4.86 81.17-6.62 82.93-8.37 85.25-10.82L85.25-10.82 85.25-8.03Q84-6.62 82.51-5.09 81.03-3.56 79.54-2.25 78.05-0.93 76.79-0.11 75.53 0.71 74.75 0.71L74.75 0.71Q73.63 0.71 73.19-0.23 72.75-1.17 72.75-2.54L72.75-2.54Q72.75-4.1 73.16-5.81L73.16-5.81Q70.38-2.56 67.73-0.93 65.08 0.71 63.54 0.71ZM67.35-3.86L67.35-3.86Q68.21-3.86 69.27-4.38 70.33-4.91 71.33-5.68 72.33-6.45 73.04-7.2 73.75-7.96 73.85-8.4L73.85-8.4 76-17.85Q75.97-17.97 75.39-18.38 74.8-18.8 73.7-18.8L73.7-18.8Q72.07-18.8 70.56-17.68 69.06-16.55 67.89-14.75 66.72-12.94 66.04-10.89 65.35-8.84 65.35-6.96L65.35-6.96Q65.35-5.22 65.9-4.54 66.45-3.86 67.35-3.86ZM85.08 0.71L85.08 0.71Q83.9 0.71 83.42-0.33 82.93-1.37 82.93-2.49L82.93-2.49Q82.93-3.27 83.21-4.82 83.49-6.37 83.92-8.24 84.34-10.11 84.82-11.95 85.3-13.79 85.7-15.2 86.1-16.6 86.32-17.14L86.32-17.14Q86.83-18.46 87.58-18.98 88.32-19.51 89.35-19.6 90.37-19.7 91.72-19.7L91.72-19.7Q91.47-18.87 91.01-17.36 90.54-15.84 90.01-14 89.47-12.16 88.98-10.34 88.49-8.52 88.18-7.06 87.86-5.59 87.86-4.86L87.86-4.86Q87.86-4.52 88.02-3.88 88.18-3.25 88.71-3.25L88.71-3.25Q89.01-3.25 90.04-4.15 91.08-5.05 92.4-6.34 93.72-7.62 94.89-8.84 96.06-10.06 96.62-10.69L96.62-10.69 96.62-7.96Q92.5-3.91 89.91-1.66 87.32 0.59 85.08 0.71ZM91.64-25.49L91.64-25.49Q90.62-25.49 90.18-26.06 89.74-26.64 89.74-27.39L89.74-27.39Q89.74-28.22 90.17-29.11 90.59-30 91.36-30.63 92.13-31.25 93.13-31.25L93.13-31.25Q94.57-31.25 95.21-30.68 95.84-30.1 95.84-29.35L95.84-29.35Q95.84-28.52 95.26-27.61 94.67-26.71 93.72-26.1 92.77-25.49 91.64-25.49ZM109.1 1.39L109.1 1.39Q105.78 1.39 103.85-0.33 101.92-2.05 101.1-4.88 100.28-7.71 100.28-11.01L100.28-11.01Q100.28-14.31 100.91-17.68 101.53-21.04 102.48-23.83 103.43-26.61 104.43-28.1L104.43-28.1Q104.75-28.56 105.23-29.37 105.7-30.18 106.09-30.93 106.48-31.69 106.48-31.96L106.48-31.96Q106.48-32.1 106.44-32.1L106.44-32.1Q106.36-32.1 106.14-31.96L106.14-31.96 103.33-29.81Q102.82-29.52 101.08-28.43 99.33-27.34 97.01-25.92 94.69-24.49 92.4-23.1L92.4-23.1 92.4-25.81Q94.67-27.1 97.19-28.65 99.72-30.2 102.2-31.74 104.68-33.28 106.79-34.55 108.9-35.82 110.37-36.58 111.83-37.35 112.29-37.35L112.29-37.35Q112.44-37.35 112.69-37.23 112.93-37.11 112.93-36.84L112.93-36.84Q112.93-36.89 112.51-35.69 112.1-34.5 111.45-32.41 110.81-30.32 110.06-27.67 109.32-25.02 108.67-22.13 108.02-19.24 107.61-16.42 107.19-13.6 107.19-11.21L107.19-11.21Q107.19-8.25 108.05-6.35 108.9-4.44 110.98-4.44L110.98-4.44Q112.56-4.44 114.27-5.66 115.98-6.88 117.67-8.9 119.35-10.91 120.85-13.32 122.35-15.72 123.51-18.13 124.67-20.53 125.33-22.51L125.33-22.51Q124.65-22.63 123.53-23.14 122.4-23.66 121.25-24.61 120.11-25.56 119.33-27 118.54-28.44 118.54-30.4L118.54-30.4Q118.54-31.81 119.06-33.35 119.57-34.89 120.72-35.97 121.87-37.06 123.79-37.06L123.79-37.06Q125.28-37.06 126.22-36.05 127.16-35.03 127.69-33.47 128.21-31.91 128.43-30.21 128.65-28.52 128.69-27.09 128.73-25.66 128.73-24.95L128.73-24.95Q128.73-24.95 129.99-25.24 131.26-25.54 133.22-26.38 135.17-27.22 137.25-28.81L137.25-28.81 137.25-26Q135.93-25.15 133.52-24 131.12-22.85 128.43-22.41L128.43-22.41Q127.87-19.78 126.71-16.6 125.55-13.43 123.83-10.25 122.11-7.08 119.89-4.44 117.67-1.81 114.96-0.21 112.25 1.39 109.1 1.39ZM125.58-25.1L125.58-25.1Q125.58-25.32 125.6-25.57 125.62-25.83 125.62-26.05L125.62-26.05Q125.62-27.54 125.31-29.06 124.99-30.59 124.39-31.64 123.79-32.69 122.94-32.69L122.94-32.69Q122.11-32.69 121.85-32.12 121.6-31.54 121.6-30.91L121.6-30.91Q121.6-28.52 122.8-26.98 124.01-25.44 125.58-25.1ZM135.61 0.76L135.61 0.76Q132.65 0.76 130.9-1.2 129.14-3.15 129.14-6.3L129.14-6.3Q129.14-8.94 130-11.47 130.87-14.01 132.47-16.05 134.07-18.09 136.27-19.3 138.46-20.51 141.13-20.51L141.13-20.51Q143.52-20.51 145.2-19.58 146.89-18.65 146.89-16.21L146.89-16.21Q146.89-14.33 145.82-12.76 144.76-11.18 143.1-10.24 141.44-9.3 139.59-9.3L139.59-9.3Q138.56-9.3 137.33-9.91 136.1-10.52 135.17-11.94L135.17-11.94Q134.12-9.74 134.12-7.64L134.12-7.64Q134.12-6.18 134.47-4.9 134.83-3.61 135.73-2.81 136.63-2 138.22-2L138.22-2Q139.37-2 140.78-2.93 142.2-3.86 143.71-5.26 145.23-6.67 146.67-8.13 148.11-9.59 149.28-10.69L149.28-10.69 149.28-8.01Q145.91-4.05 142.55-1.65 139.2 0.76 135.61 0.76ZM139.98-11.4L139.98-11.4Q141.42-11.4 142.44-12.82 143.47-14.23 143.47-15.94L143.47-15.94Q143.47-17.33 142.86-17.82 142.25-18.31 141.17-18.31L141.17-18.31Q139.73-18.31 138.63-17.48 137.54-16.65 136.84-15.59 136.14-14.53 135.88-13.79L135.88-13.79Q136.73-12.67 137.82-12.04 138.9-11.4 139.98-11.4ZM153.21 0.71L153.21 0.71Q152.06 0.71 151.56-0.33 151.06-1.37 151.06-2.49L151.06-2.49Q151.06-3.27 151.62-4.92 152.18-6.57 152.98-8.5 153.77-10.42 154.49-12.06 155.21-13.7 155.5-14.4L155.5-14.4Q154.4-13.18 153.63-12.4 152.87-11.62 152.21-10.97 151.55-10.33 150.77-9.51 149.99-8.69 148.81-7.37L148.81-7.37 148.81-10.21 153.77-15.8Q151.28-16.41 150.5-17.33 149.72-18.26 149.72-18.65L149.72-18.65Q149.72-20.26 150.96-21.61 152.21-22.95 154.45-22.95L154.45-22.95Q155.55-22.95 155.55-21.66L155.55-21.66Q155.55-20.95 155.12-20.04 154.7-19.14 154.06-18.8L154.06-18.8Q154.7-18.24 155.71-18.02 156.72-17.8 157.92-17.8L157.92-17.8Q158.48-17.8 159.36-17.97 160.24-18.14 160.85-18.14L160.85-18.14Q161.56-18.14 161.56-17.8L161.56-17.8Q161.56-17.6 161.51-17.5L161.51-17.5Q161.07-16.46 160.18-14.61 159.29-12.77 158.32-10.69 157.36-8.62 156.69-6.82 156.02-5.03 156.02-4.1L156.02-4.1Q156.02-3.83 156.11-3.59 156.21-3.34 156.53-3.34L156.53-3.34Q156.87-3.34 157.98-4.25 159.09-5.15 160.48-6.43 161.87-7.71 163.12-8.94 164.36-10.16 164.95-10.77L164.95-10.77 164.95-7.98Q163.56-6.35 161.91-4.8 160.26-3.25 158.62-2 156.97-0.76 155.55-0.02 154.14 0.71 153.21 0.71ZM166.88 0.71L166.88 0.71Q165.53 0.71 163.96 0.35 162.38 0 161.26-0.92 160.14-1.83 160.14-3.49L160.14-3.49Q160.14-4.52 160.8-5.66 161.46-6.81 162.43-7.97 163.41-9.13 164.37-10.14 165.34-11.16 165.95-11.91L165.95-11.91Q165.29-13.55 165.29-15.21L165.29-15.21Q165.29-17.55 167.37-19.3 169.44-21.04 174.01-21.04L174.01-21.04Q174.37-21.04 174.96-20.9 175.54-20.75 175.54-20.19L175.54-20.19Q175.54-19.09 174.59-18.38 173.64-17.68 172.3-17.33 170.95-16.99 169.73-16.99L169.73-16.99Q170.3-15.45 171.25-14.31 172.2-13.16 173.19-12.26 174.18-11.35 174.86-10.57 175.54-9.79 175.54-8.96L175.54-8.96Q175.54-7.15 173.84-4.81L173.84-4.81Q175.64-6.37 177.46-7.74 179.28-9.11 181.09-11.23L181.09-11.23 181.09-8.4Q180.18-7.28 178.53-5.73 176.89-4.17 174.85-2.71 172.81-1.25 170.72-0.27 168.63 0.71 166.88 0.71ZM167.15-1.15L167.15-1.15Q168.66-1.15 169.7-1.68 170.73-2.22 170.73-3.3L170.73-3.3Q170.73-4.47 170.11-5.65 169.49-6.84 168.62-7.96 167.76-9.08 167-10.01L167-10.01Q166.49-9.45 165.44-8.46 164.39-7.47 163.51-6.4 162.63-5.32 162.63-4.49L162.63-4.49Q162.63-3.47 163.32-2.72 164.02-1.98 165.06-1.56 166.1-1.15 167.15-1.15ZM185.11 0.76L185.11 0.76Q182.16 0.76 180.4-1.2 178.64-3.15 178.64-6.3L178.64-6.3Q178.64-8.94 179.51-11.47 180.38-14.01 181.97-16.05 183.57-18.09 185.77-19.3 187.97-20.51 190.63-20.51L190.63-20.51Q193.02-20.51 194.71-19.58 196.39-18.65 196.39-16.21L196.39-16.21Q196.39-14.33 195.33-12.76 194.27-11.18 192.61-10.24 190.95-9.3 189.09-9.3L189.09-9.3Q188.07-9.3 186.83-9.91 185.6-10.52 184.67-11.94L184.67-11.94Q183.62-9.74 183.62-7.64L183.62-7.64Q183.62-6.18 183.98-4.9 184.33-3.61 185.23-2.81 186.14-2 187.72-2L187.72-2Q188.87-2 190.29-2.93 191.7-3.86 193.22-5.26 194.73-6.67 196.17-8.13 197.61-9.59 198.78-10.69L198.78-10.69 198.78-8.01Q195.41-4.05 192.06-1.65 188.7 0.76 185.11 0.76ZM189.48-11.4L189.48-11.4Q190.92-11.4 191.95-12.82 192.97-14.23 192.97-15.94L192.97-15.94Q192.97-17.33 192.36-17.82 191.75-18.31 190.68-18.31L190.68-18.31Q189.24-18.31 188.14-17.48 187.04-16.65 186.34-15.59 185.65-14.53 185.38-13.79L185.38-13.79Q186.23-12.67 187.32-12.04 188.41-11.4 189.48-11.4Z" opacity="1" transform="matrix(1,0,0,1,0,0)" fill="white" class="wordmark-text-0" id="SvgjsPath1832"></path></svg></g></svg></g></svg></g></svg></g><g><svg viewBox="0 0 244.43135999999998 189.46642864611812" height="189.46642864611812" width="244.43135999999998"><g><svg xmlns="http://www.w3.org/2000/svg" xmlns:xlink="http://www.w3.org/1999/xlink" version="1.1" x="0" y="0" viewBox="4.823 14.981 90.35499999999999 70.037" enable-background="new 0 0 100 100" xml:space="preserve" height="189.46642864611812" width="244.43135999999998" class="icon-icon-0" data-fill-palette-color="accent" id="SvgjsSvg1831"><path fill="black" d="M71.611 14.981c-9.679 0-17.985 5.842-21.614 14.185-3.628-8.343-11.922-14.185-21.601-14.185-13.023 0-23.573 10.553-23.573 23.57 0 7.755 3.807 14.581 9.58 18.876l35.594 27.591 35.601-27.591c5.78-4.295 9.58-11.121 9.58-18.876C95.178 25.535 84.621 14.981 71.611 14.981zM72.329 53.09H59.881l-3.455-9.343L48.84 67.1l-7.623-17.074-0.762 2.175H27.673v-3.558h10.258l2.886-8.241 7.499 16.795 7.892-24.296 6.152 16.631h9.97V53.09z"></path></svg></g></svg></g></svg></g><defs><mask></mask></defs></svg><rect width="395.52" height="113.53811360011998" fill="black" stroke="none" visibility="hidden"></rect></g></mask><linearGradient x1="0" x2="1" y1="0.548" y2="0.55" id="dce61f03-5e2a-45d9-8077-5ccf28e63fe1"><stop stop-color="#ff6cab" offset="0"></stop><stop stop-color="#7366ff" offset="1"></stop></linearGradient><rect width="395.52" height="113.53811360011998" fill="url(#dce61f03-5e2a-45d9-8077-5ccf28e63fe1)" mask="url(#44d04bc3-30b5-4eb2-a7b9-3d37e9d8bc53)" data-fill-palette-color="primary"></rect><mask id="df6aaddb-f7af-49cb-8947-5dd1182c931b"><g id="SvgjsG1844"><svg viewBox="0 0 395.52 113.53811360011998" height="113.53811360011998" width="395.52"><g><svg viewBox="0 0 660.0229604134752 189.46642864611812" height="113.53811360011998" width="395.52"><g transform="matrix(1,0,0,1,264.50296041347514,52.2223271225915)"><svg viewBox="0 0 395.52 85.02177440093512" height="85.02177440093512" width="395.52"><g id="SvgjsG1843"><svg viewBox="0 0 395.52 85.02177440093512" height="85.02177440093512" width="395.52" id="SvgjsSvg1842"><g><svg viewBox="0 0 395.52 85.02177440093512" height="85.02177440093512" width="395.52"><g transform="matrix(1,0,0,1,0,0)"><svg width="395.52" viewBox="-10.06 -38.55 208.84 44.9" height="85.02177440093512" data-palette-color="url(#dce61f03-5e2a-45d9-8077-5ccf28e63fe1)"></svg></g></svg></g></svg></g></svg></g><g><svg viewBox="0 0 244.43135999999998 189.46642864611812" height="189.46642864611812" width="244.43135999999998"><g><svg xmlns="http://www.w3.org/2000/svg" xmlns:xlink="http://www.w3.org/1999/xlink" version="1.1" x="0" y="0" viewBox="4.823 14.981 90.35499999999999 70.037" enable-background="new 0 0 100 100" xml:space="preserve" height="189.46642864611812" width="244.43135999999998" class="icon-icon-0" data-fill-palette-color="accent" id="SvgjsSvg1841"><path fill="white" d="M71.611 14.981c-9.679 0-17.985 5.842-21.614 14.185-3.628-8.343-11.922-14.185-21.601-14.185-13.023 0-23.573 10.553-23.573 23.57 0 7.755 3.807 14.581 9.58 18.876l35.594 27.591 35.601-27.591c5.78-4.295 9.58-11.121 9.58-18.876C95.178 25.535 84.621 14.981 71.611 14.981zM72.329 53.09H59.881l-3.455-9.343L48.84 67.1l-7.623-17.074-0.762 2.175H27.673v-3.558h10.258l2.886-8.241 7.499 16.795 7.892-24.296 6.152 16.631h9.97V53.09z"></path></svg></g></svg></g></svg></g><defs><mask></mask></defs><mask><g id="SvgjsG1840"><svg viewBox="0 0 395.52 113.53811360011998" height="113.53811360011998" width="395.52"><g><svg viewBox="0 0 660.0229604134752 189.46642864611812" height="113.53811360011998" width="395.52"><g transform="matrix(1,0,0,1,264.50296041347514,52.2223271225915)"><svg viewBox="0 0 395.52 85.02177440093512" height="85.02177440093512" width="395.52"><g id="SvgjsG1839"><svg viewBox="0 0 395.52 85.02177440093512" height="85.02177440093512" width="395.52" id="SvgjsSvg1838"><g><svg viewBox="0 0 395.52 85.02177440093512" height="85.02177440093512" width="395.52"><g transform="matrix(1,0,0,1,0,0)"><svg width="395.52" viewBox="-10.06 -38.55 208.84 44.9" height="85.02177440093512" data-palette-color="url(#dce61f03-5e2a-45d9-8077-5ccf28e63fe1)"><path d="M-8.91 6.35L-8.91 6.35Q-9.42 6.35-9.74 5.64-10.06 4.93-10.06 3L-10.06 3Q-10.06 2-9.2 1.39-8.35 0.78-7.01 0.28-5.66-0.22-4.13-0.85-2.59-1.49-1.17-2.5 0.24-3.52 1.2-5.2L1.2-5.2Q2.59-8.18 4.36-11.9 6.13-15.63 8.01-19.58 9.89-23.54 11.67-27.26 13.45-30.98 14.84-33.96L14.84-33.96Q15.84-35.79 17.77-36.95 19.7-38.11 21.85-38.11L21.85-38.11 22.14-37.94Q21.29-31.49 21-24.94 20.7-18.38 20.29-11.84L20.29-11.84 20.65-11.84Q21.85-14.23 22.71-15.89 23.56-17.55 24.37-19.1 25.17-20.65 26.17-22.62 27.17-24.58 28.64-27.51 30.1-30.44 32.3-34.91L32.3-34.91Q32.64-35.47 33.53-36.1 34.42-36.72 35.55-37.27 36.67-37.82 37.73-38.17 38.79-38.53 39.45-38.55L39.45-38.55Q39.45-38.53 39.54-38.51 39.62-38.5 39.65-38.45L39.65-38.45Q39.04-35.25 38.33-31.58 37.62-27.91 36.94-24.16 36.25-20.41 35.69-16.91 35.13-13.4 34.79-10.53 34.45-7.67 34.45-5.81L34.45-5.81Q34.45-3.44 35.6-3.44L35.6-3.44Q36.18-3.44 37.33-4.22 38.48-5 39.86-6.19 41.24-7.37 42.54-8.59 43.85-9.81 44.75-10.69L44.75-10.69 44.75-7.91Q42.09-5.32 39.55-3.22 37.01-1.12 34.9 0.11 32.79 1.34 31.35 1.34L31.35 1.34Q30.03 1.34 29.31 0.16 28.59-1.03 28.59-3.76L28.59-3.76Q28.59-5.93 28.92-8.7 29.25-11.47 29.74-14.43 30.22-17.38 30.75-20.14 31.27-22.9 31.64-25.05L31.64-25.05Q31.74-25.81 31.93-26.78 32.13-27.76 32.31-28.58 32.5-29.39 32.5-29.64L32.5-29.64Q32.5-30.05 32.25-30.05L32.25-30.05Q31.91-30.05 31.81-29.76L31.81-29.76Q31.3-28.76 30.25-26.68 29.2-24.61 27.8-21.88 26.39-19.14 24.84-16.14 23.29-13.13 21.78-10.25 20.26-7.37 18.96-5 17.65-2.64 16.76-1.17 15.87 0.29 15.6 0.44L15.6 0.44Q14.84 0.22 14.58-0.23 14.31-0.68 14.31-1L14.31-1 14.99-27.54 14.65-27.54 2.95-3.2Q2.22-1.88 0.88-0.24-0.46 1.39-2.15 2.89-3.83 4.39-5.59 5.37-7.35 6.35-8.91 6.35ZM48.92 0.76L48.92 0.76Q45.97 0.76 44.21-1.2 42.45-3.15 42.45-6.3L42.45-6.3Q42.45-8.94 43.32-11.47 44.19-14.01 45.79-16.05 47.39-18.09 49.58-19.3 51.78-20.51 54.44-20.51L54.44-20.51Q56.83-20.51 58.52-19.58 60.2-18.65 60.2-16.21L60.2-16.21Q60.2-14.33 59.14-12.76 58.08-11.18 56.42-10.24 54.76-9.3 52.9-9.3L52.9-9.3Q51.88-9.3 50.64-9.91 49.41-10.52 48.48-11.94L48.48-11.94Q47.43-9.74 47.43-7.64L47.43-7.64Q47.43-6.18 47.79-4.9 48.14-3.61 49.05-2.81 49.95-2 51.54-2L51.54-2Q52.68-2 54.1-2.93 55.52-3.86 57.03-5.26 58.54-6.67 59.98-8.13 61.42-9.59 62.6-10.69L62.6-10.69 62.6-8.01Q59.23-4.05 55.87-1.65 52.51 0.76 48.92 0.76ZM53.29-11.4L53.29-11.4Q54.73-11.4 55.76-12.82 56.78-14.23 56.78-15.94L56.78-15.94Q56.78-17.33 56.17-17.82 55.56-18.31 54.49-18.31L54.49-18.31Q53.05-18.31 51.95-17.48 50.85-16.65 50.16-15.59 49.46-14.53 49.19-13.79L49.19-13.79Q50.05-12.67 51.13-12.04 52.22-11.4 53.29-11.4ZM63.54 0.71L63.54 0.71Q62.13 0.71 61.41-0.16 60.69-1.03 60.44-2.22 60.2-3.42 60.2-4.44L60.2-4.44Q60.2-7.08 61.37-9.9 62.54-12.72 64.46-15.12 66.38-17.53 68.68-19.02 70.99-20.51 73.26-20.51L73.26-20.51Q74.46-20.51 75.21-20.32 75.97-20.14 76.46-20L76.46-20 79.71-31.59Q80.12-33.25 80.51-34.13 80.9-35.01 81.87-35.33 82.83-35.64 84.91-35.64L84.91-35.64 85.76-35.64Q85.74-35.33 85.46-34.22 85.18-33.11 84.91-32.25L84.91-32.25Q84.52-31.08 83.87-28.93 83.22-26.78 82.44-24.11 81.66-21.44 80.89-18.63 80.12-15.82 79.47-13.29 78.83-10.77 78.44-8.94 78.05-7.1 78.05-6.4L78.05-6.4Q78.05-5.47 78.23-5.16 78.41-4.86 78.8-4.86L78.8-4.86Q79.41-4.86 81.17-6.62 82.93-8.37 85.25-10.82L85.25-10.82 85.25-8.03Q84-6.62 82.51-5.09 81.03-3.56 79.54-2.25 78.05-0.93 76.79-0.11 75.53 0.71 74.75 0.71L74.75 0.71Q73.63 0.71 73.19-0.23 72.75-1.17 72.75-2.54L72.75-2.54Q72.75-4.1 73.16-5.81L73.16-5.81Q70.38-2.56 67.73-0.93 65.08 0.71 63.54 0.71ZM67.35-3.86L67.35-3.86Q68.21-3.86 69.27-4.38 70.33-4.91 71.33-5.68 72.33-6.45 73.04-7.2 73.75-7.96 73.85-8.4L73.85-8.4 76-17.85Q75.97-17.97 75.39-18.38 74.8-18.8 73.7-18.8L73.7-18.8Q72.07-18.8 70.56-17.68 69.06-16.55 67.89-14.75 66.72-12.94 66.04-10.89 65.35-8.84 65.35-6.96L65.35-6.96Q65.35-5.22 65.9-4.54 66.45-3.86 67.35-3.86ZM85.08 0.71L85.08 0.71Q83.9 0.71 83.42-0.33 82.93-1.37 82.93-2.49L82.93-2.49Q82.93-3.27 83.21-4.82 83.49-6.37 83.92-8.24 84.34-10.11 84.82-11.95 85.3-13.79 85.7-15.2 86.1-16.6 86.32-17.14L86.32-17.14Q86.83-18.46 87.58-18.98 88.32-19.51 89.35-19.6 90.37-19.7 91.72-19.7L91.72-19.7Q91.47-18.87 91.01-17.36 90.54-15.84 90.01-14 89.47-12.16 88.98-10.34 88.49-8.52 88.18-7.06 87.86-5.59 87.86-4.86L87.86-4.86Q87.86-4.52 88.02-3.88 88.18-3.25 88.71-3.25L88.71-3.25Q89.01-3.25 90.04-4.15 91.08-5.05 92.4-6.34 93.72-7.62 94.89-8.84 96.06-10.06 96.62-10.69L96.62-10.69 96.62-7.96Q92.5-3.91 89.91-1.66 87.32 0.59 85.08 0.71ZM91.64-25.49L91.64-25.49Q90.62-25.49 90.18-26.06 89.74-26.64 89.74-27.39L89.74-27.39Q89.74-28.22 90.17-29.11 90.59-30 91.36-30.63 92.13-31.25 93.13-31.25L93.13-31.25Q94.57-31.25 95.21-30.68 95.84-30.1 95.84-29.35L95.84-29.35Q95.84-28.52 95.26-27.61 94.67-26.71 93.72-26.1 92.77-25.49 91.64-25.49ZM109.1 1.39L109.1 1.39Q105.78 1.39 103.85-0.33 101.92-2.05 101.1-4.88 100.28-7.71 100.28-11.01L100.28-11.01Q100.28-14.31 100.91-17.68 101.53-21.04 102.48-23.83 103.43-26.61 104.43-28.1L104.43-28.1Q104.75-28.56 105.23-29.37 105.7-30.18 106.09-30.93 106.48-31.69 106.48-31.96L106.48-31.96Q106.48-32.1 106.44-32.1L106.44-32.1Q106.36-32.1 106.14-31.96L106.14-31.96 103.33-29.81Q102.82-29.52 101.08-28.43 99.33-27.34 97.01-25.92 94.69-24.49 92.4-23.1L92.4-23.1 92.4-25.81Q94.67-27.1 97.19-28.65 99.72-30.2 102.2-31.74 104.68-33.28 106.79-34.55 108.9-35.82 110.37-36.58 111.83-37.35 112.29-37.35L112.29-37.35Q112.44-37.35 112.69-37.23 112.93-37.11 112.93-36.84L112.93-36.84Q112.93-36.89 112.51-35.69 112.1-34.5 111.45-32.41 110.81-30.32 110.06-27.67 109.32-25.02 108.67-22.13 108.02-19.24 107.61-16.42 107.19-13.6 107.19-11.21L107.19-11.21Q107.19-8.25 108.05-6.35 108.9-4.44 110.98-4.44L110.98-4.44Q112.56-4.44 114.27-5.66 115.98-6.88 117.67-8.9 119.35-10.91 120.85-13.32 122.35-15.72 123.51-18.13 124.67-20.53 125.33-22.51L125.33-22.51Q124.65-22.63 123.53-23.14 122.4-23.66 121.25-24.61 120.11-25.56 119.33-27 118.54-28.44 118.54-30.4L118.54-30.4Q118.54-31.81 119.06-33.35 119.57-34.89 120.72-35.97 121.87-37.06 123.79-37.06L123.79-37.06Q125.28-37.06 126.22-36.05 127.16-35.03 127.69-33.47 128.21-31.91 128.43-30.21 128.65-28.52 128.69-27.09 128.73-25.66 128.73-24.95L128.73-24.95Q128.73-24.95 129.99-25.24 131.26-25.54 133.22-26.38 135.17-27.22 137.25-28.81L137.25-28.81 137.25-26Q135.93-25.15 133.52-24 131.12-22.85 128.43-22.41L128.43-22.41Q127.87-19.78 126.71-16.6 125.55-13.43 123.83-10.25 122.11-7.08 119.89-4.44 117.67-1.81 114.96-0.21 112.25 1.39 109.1 1.39ZM125.58-25.1L125.58-25.1Q125.58-25.32 125.6-25.57 125.62-25.83 125.62-26.05L125.62-26.05Q125.62-27.54 125.31-29.06 124.99-30.59 124.39-31.64 123.79-32.69 122.94-32.69L122.94-32.69Q122.11-32.69 121.85-32.12 121.6-31.54 121.6-30.91L121.6-30.91Q121.6-28.52 122.8-26.98 124.01-25.44 125.58-25.1ZM135.61 0.76L135.61 0.76Q132.65 0.76 130.9-1.2 129.14-3.15 129.14-6.3L129.14-6.3Q129.14-8.94 130-11.47 130.87-14.01 132.47-16.05 134.07-18.09 136.27-19.3 138.46-20.51 141.13-20.51L141.13-20.51Q143.52-20.51 145.2-19.58 146.89-18.65 146.89-16.21L146.89-16.21Q146.89-14.33 145.82-12.76 144.76-11.18 143.1-10.24 141.44-9.3 139.59-9.3L139.59-9.3Q138.56-9.3 137.33-9.91 136.1-10.52 135.17-11.94L135.17-11.94Q134.12-9.74 134.12-7.64L134.12-7.64Q134.12-6.18 134.47-4.9 134.83-3.61 135.73-2.81 136.63-2 138.22-2L138.22-2Q139.37-2 140.78-2.93 142.2-3.86 143.71-5.26 145.23-6.67 146.67-8.13 148.11-9.59 149.28-10.69L149.28-10.69 149.28-8.01Q145.91-4.05 142.55-1.65 139.2 0.76 135.61 0.76ZM139.98-11.4L139.98-11.4Q141.42-11.4 142.44-12.82 143.47-14.23 143.47-15.94L143.47-15.94Q143.47-17.33 142.86-17.82 142.25-18.31 141.17-18.31L141.17-18.31Q139.73-18.31 138.63-17.48 137.54-16.65 136.84-15.59 136.14-14.53 135.88-13.79L135.88-13.79Q136.73-12.67 137.82-12.04 138.9-11.4 139.98-11.4ZM153.21 0.71L153.21 0.71Q152.06 0.71 151.56-0.33 151.06-1.37 151.06-2.49L151.06-2.49Q151.06-3.27 151.62-4.92 152.18-6.57 152.98-8.5 153.77-10.42 154.49-12.06 155.21-13.7 155.5-14.4L155.5-14.4Q154.4-13.18 153.63-12.4 152.87-11.62 152.21-10.97 151.55-10.33 150.77-9.51 149.99-8.69 148.81-7.37L148.81-7.37 148.81-10.21 153.77-15.8Q151.28-16.41 150.5-17.33 149.72-18.26 149.72-18.65L149.72-18.65Q149.72-20.26 150.96-21.61 152.21-22.95 154.45-22.95L154.45-22.95Q155.55-22.95 155.55-21.66L155.55-21.66Q155.55-20.95 155.12-20.04 154.7-19.14 154.06-18.8L154.06-18.8Q154.7-18.24 155.71-18.02 156.72-17.8 157.92-17.8L157.92-17.8Q158.48-17.8 159.36-17.97 160.24-18.14 160.85-18.14L160.85-18.14Q161.56-18.14 161.56-17.8L161.56-17.8Q161.56-17.6 161.51-17.5L161.51-17.5Q161.07-16.46 160.18-14.61 159.29-12.77 158.32-10.69 157.36-8.62 156.69-6.82 156.02-5.03 156.02-4.1L156.02-4.1Q156.02-3.83 156.11-3.59 156.21-3.34 156.53-3.34L156.53-3.34Q156.87-3.34 157.98-4.25 159.09-5.15 160.48-6.43 161.87-7.71 163.12-8.94 164.36-10.16 164.95-10.77L164.95-10.77 164.95-7.98Q163.56-6.35 161.91-4.8 160.26-3.25 158.62-2 156.97-0.76 155.55-0.02 154.14 0.71 153.21 0.71ZM166.88 0.71L166.88 0.71Q165.53 0.71 163.96 0.35 162.38 0 161.26-0.92 160.14-1.83 160.14-3.49L160.14-3.49Q160.14-4.52 160.8-5.66 161.46-6.81 162.43-7.97 163.41-9.13 164.37-10.14 165.34-11.16 165.95-11.91L165.95-11.91Q165.29-13.55 165.29-15.21L165.29-15.21Q165.29-17.55 167.37-19.3 169.44-21.04 174.01-21.04L174.01-21.04Q174.37-21.04 174.96-20.9 175.54-20.75 175.54-20.19L175.54-20.19Q175.54-19.09 174.59-18.38 173.64-17.68 172.3-17.33 170.95-16.99 169.73-16.99L169.73-16.99Q170.3-15.45 171.25-14.31 172.2-13.16 173.19-12.26 174.18-11.35 174.86-10.57 175.54-9.79 175.54-8.96L175.54-8.96Q175.54-7.15 173.84-4.81L173.84-4.81Q175.64-6.37 177.46-7.74 179.28-9.11 181.09-11.23L181.09-11.23 181.09-8.4Q180.18-7.28 178.53-5.73 176.89-4.17 174.85-2.71 172.81-1.25 170.72-0.27 168.63 0.71 166.88 0.71ZM167.15-1.15L167.15-1.15Q168.66-1.15 169.7-1.68 170.73-2.22 170.73-3.3L170.73-3.3Q170.73-4.47 170.11-5.65 169.49-6.84 168.62-7.96 167.76-9.08 167-10.01L167-10.01Q166.49-9.45 165.44-8.46 164.39-7.47 163.51-6.4 162.63-5.32 162.63-4.49L162.63-4.49Q162.63-3.47 163.32-2.72 164.02-1.98 165.06-1.56 166.1-1.15 167.15-1.15ZM185.11 0.76L185.11 0.76Q182.16 0.76 180.4-1.2 178.64-3.15 178.64-6.3L178.64-6.3Q178.64-8.94 179.51-11.47 180.38-14.01 181.97-16.05 183.57-18.09 185.77-19.3 187.97-20.51 190.63-20.51L190.63-20.51Q193.02-20.51 194.71-19.58 196.39-18.65 196.39-16.21L196.39-16.21Q196.39-14.33 195.33-12.76 194.27-11.18 192.61-10.24 190.95-9.3 189.09-9.3L189.09-9.3Q188.07-9.3 186.83-9.91 185.6-10.52 184.67-11.94L184.67-11.94Q183.62-9.74 183.62-7.64L183.62-7.64Q183.62-6.18 183.98-4.9 184.33-3.61 185.23-2.81 186.14-2 187.72-2L187.72-2Q188.87-2 190.29-2.93 191.7-3.86 193.22-5.26 194.73-6.67 196.17-8.13 197.61-9.59 198.78-10.69L198.78-10.69 198.78-8.01Q195.41-4.05 192.06-1.65 188.7 0.76 185.11 0.76ZM189.48-11.4L189.48-11.4Q190.92-11.4 191.95-12.82 192.97-14.23 192.97-15.94L192.97-15.94Q192.97-17.33 192.36-17.82 191.75-18.31 190.68-18.31L190.68-18.31Q189.24-18.31 188.14-17.48 187.04-16.65 186.34-15.59 185.65-14.53 185.38-13.79L185.38-13.79Q186.23-12.67 187.32-12.04 188.41-11.4 189.48-11.4Z" opacity="1" transform="matrix(1,0,0,1,0,0)" fill="black" class="wordmark-text-0" id="SvgjsPath1837"></path></svg></g></svg></g></svg></g></svg></g><g><svg viewBox="0 0 244.43135999999998 189.46642864611812" height="189.46642864611812" width="244.43135999999998"><g><svg xmlns="http://www.w3.org/2000/svg" xmlns:xlink="http://www.w3.org/1999/xlink" version="1.1" x="0" y="0" viewBox="4.823 14.981 90.35499999999999 70.037" enable-background="new 0 0 100 100" xml:space="preserve" height="189.46642864611812" width="244.43135999999998" class="icon-icon-0" data-fill-palette-color="accent" id="SvgjsSvg1836"><path fill="black" d="M71.611 14.981c-9.679 0-17.985 5.842-21.614 14.185-3.628-8.343-11.922-14.185-21.601-14.185-13.023 0-23.573 10.553-23.573 23.57 0 7.755 3.807 14.581 9.58 18.876l35.594 27.591 35.601-27.591c5.78-4.295 9.58-11.121 9.58-18.876C95.178 25.535 84.621 14.981 71.611 14.981zM72.329 53.09H59.881l-3.455-9.343L48.84 67.1l-7.623-17.074-0.762 2.175H27.673v-3.558h10.258l2.886-8.241 7.499 16.795 7.892-24.296 6.152 16.631h9.97V53.09z"></path></svg></g></svg></g></svg></g><defs><mask></mask></defs></svg><rect width="395.52" height="113.53811360011998" fill="black" stroke="none" visibility="hidden"></rect></g></mask></svg><rect width="395.52" height="113.53811360011998" fill="black" stroke="none" visibility="hidden"></rect></g></mask><linearGradient x1="0" x2="1" y1="0.548" y2="0.55" id="c3ba1f9d-4bef-414f-b1d7-3725aa51daae"><stop stop-color="#ff6cab" offset="0"></stop><stop stop-color="#7366ff" offset="1"></stop></linearGradient><rect width="395.52" height="113.53811360011998" fill="url(#c3ba1f9d-4bef-414f-b1d7-3725aa51daae)" mask="url(#df6aaddb-f7af-49cb-8947-5dd1182c931b)" data-fill-palette-color="accent"></rect></svg><rect width="395.52" height="113.53811360011998" fill="none" stroke="none" visibility="hidden"></rect></g></svg></g></svg>