<?xml version="1.0" encoding="utf-8"?>
<!-- Generator: Adobe Illustrator 27.5.0, SVG Export Plug-In . SVG Version: 6.00 Build 0)  -->
<svg version="1.1" xmlns="http://www.w3.org/2000/svg" xmlns:xlink="http://www.w3.org/1999/xlink" x="0px" y="0px"
	 viewBox="0 0 500 500" style="enable-background:new 0 0 500 500;" xml:space="preserve">
<g id="BACKGROUND">
	<rect style="fill:#FFFFFF;" width="500" height="500"/>
</g>
<g id="OBJECTS">
	<g>
		<linearGradient id="SVGID_1_" gradientUnits="userSpaceOnUse" x1="250" y1="431.5204" x2="250" y2="-160.5569">
			<stop  offset="0" style="stop-color:#FFFFFF"/>
			<stop  offset="0.247" style="stop-color:#FBFDFF"/>
			<stop  offset="0.4854" style="stop-color:#F0F7FF"/>
			<stop  offset="0.7204" style="stop-color:#DCEDFF"/>
			<stop  offset="0.9519" style="stop-color:#C1DFFF"/>
			<stop  offset="0.9814" style="stop-color:#BDDDFF"/>
		</linearGradient>
		<circle style="fill:url(#SVGID_1_);" cx="250" cy="254" r="195.824"/>
		<ellipse style="fill:#BDDDFF;" cx="249.999" cy="428.877" rx="158.434" ry="17.167"/>
		<g>
			<g>
				<g>
					<g>
						<g>
							<path style="fill:#BDDDFF;" d="M378.29,88.571v52.08c0,3.07-2.48,5.55-5.55,5.55h-84.63c-3.07,0-5.55-2.48-5.55-5.55v-52.08
								c0-3.07,2.48-5.56,5.55-5.56h84.63C375.81,83.011,378.29,85.501,378.29,88.571z"/>
							<rect x="282.555" y="88.669" style="fill:#BDDDFF;" width="95.739" height="14.095"/>
							<rect x="294.413" y="115.547" style="fill:#BDDDFF;" width="20.479" height="5.239"/>
							<path style="fill:#BDDDFF;" d="M360.085,136.026c0,2.762-2.239,5.001-5.001,5.001c-2.762,0-5.001-2.239-5.001-5.001
								s2.239-5.001,5.001-5.001C357.846,131.025,360.085,133.264,360.085,136.026z"/>
							<path style="fill:#BDDDFF;" d="M371.465,136.026c0,2.762-2.239,5.001-5.001,5.001c-2.762,0-5.001-2.239-5.001-5.001
								s2.239-5.001,5.001-5.001C369.226,131.025,371.465,133.264,371.465,136.026z"/>
						</g>
						<g>
							<g>
								<path style="fill:#0485A4;" d="M377.29,87.571v52.08c0,3.07-2.48,5.55-5.55,5.55h-84.63c-3.07,0-5.55-2.48-5.55-5.55v-52.08
									c0-3.07,2.48-5.56,5.55-5.56h84.63C374.81,82.011,377.29,84.501,377.29,87.571z"/>
								<rect x="281.555" y="87.669" style="fill:#091A50;" width="95.739" height="14.095"/>
								<rect x="293.413" y="114.547" style="fill:#091A50;" width="20.479" height="5.239"/>
								<g>
									<path style="fill:#FFD644;" d="M359.085,135.026c0,2.762-2.239,5.001-5.001,5.001c-2.762,0-5.001-2.239-5.001-5.001
										s2.239-5.001,5.001-5.001C356.846,130.025,359.085,132.264,359.085,135.026z"/>
									<path style="fill:#C6141C;" d="M370.465,135.026c0,2.762-2.239,5.001-5.001,5.001c-2.762,0-5.001-2.239-5.001-5.001
										s2.239-5.001,5.001-5.001C368.226,130.025,370.465,132.264,370.465,135.026z"/>
								</g>
							</g>
						</g>
					</g>
					<path style="fill:#BDDDFF;" d="M312.93,102.031h-31.37v37.62c0,3.07,2.48,5.55,5.55,5.55h49.53v-19.46
						C336.64,112.671,326,102.031,312.93,102.031z"/>
				</g>
				<g>
					<g>
						<g>
							<rect x="305.88" y="153.721" style="fill:#BDDDFF;" width="86.12" height="112"/>
							<rect x="314.664" y="169.6" style="fill:#BDDDFF;" width="47.374" height="5.368"/>
							<rect x="314.664" y="180.814" style="fill:#BDDDFF;" width="47.374" height="2.684"/>
							<rect x="314.664" y="248.417" style="fill:#BDDDFF;" width="47.374" height="2.684"/>
							<rect x="314.664" y="189.225" style="fill:#BDDDFF;" width="68.548" height="2.684"/>
							<rect x="314.664" y="198.096" style="fill:#BDDDFF;" width="68.548" height="2.684"/>
							<rect x="314.664" y="203.471" style="fill:#BDDDFF;" width="68.548" height="2.684"/>
							<rect x="314.664" y="208.846" style="fill:#BDDDFF;" width="68.548" height="2.684"/>
							<rect x="314.664" y="214.221" style="fill:#BDDDFF;" width="68.548" height="2.684"/>
							<rect x="314.664" y="219.596" style="fill:#BDDDFF;" width="68.548" height="2.684"/>
							<rect x="314.664" y="224.971" style="fill:#BDDDFF;" width="68.548" height="2.684"/>
							<rect x="314.664" y="230.346" style="fill:#BDDDFF;" width="68.548" height="2.684"/>
						</g>
						<g>
							<g>
								<rect x="304.88" y="152.721" style="fill:#F2FFFF;" width="86.12" height="112"/>
								<g>
									<rect x="313.664" y="168.6" style="fill:#BDDDFF;" width="47.374" height="5.368"/>
									<rect x="313.664" y="179.814" style="fill:#BDDDFF;" width="47.374" height="2.684"/>
									<rect x="313.664" y="247.417" style="fill:#BDDDFF;" width="47.374" height="2.684"/>
									<rect x="313.664" y="188.225" style="fill:#BDDDFF;" width="68.548" height="2.684"/>
									<rect x="313.664" y="197.096" style="fill:#BDDDFF;" width="68.548" height="2.684"/>
									<rect x="313.664" y="202.471" style="fill:#BDDDFF;" width="68.548" height="2.684"/>
									<rect x="313.664" y="207.846" style="fill:#BDDDFF;" width="68.548" height="2.684"/>
									<rect x="313.664" y="213.221" style="fill:#BDDDFF;" width="68.548" height="2.684"/>
									<rect x="313.664" y="218.596" style="fill:#BDDDFF;" width="68.548" height="2.684"/>
									<rect x="313.664" y="223.971" style="fill:#BDDDFF;" width="68.548" height="2.684"/>
									<rect x="313.664" y="229.346" style="fill:#BDDDFF;" width="68.548" height="2.684"/>
								</g>
							</g>
						</g>
					</g>
					<g>
						<path style="fill:#BDDDFF;" d="M391,152.721v11.42h-33.37c-0.85,0-1.53-0.68-1.53-1.53v-9.89H391z"/>
						<rect x="304.88" y="152.721" style="fill:#BDDDFF;" width="31.76" height="112"/>
					</g>
				</g>
				<g>
					<path style="fill:#0485A4;" d="M400.876,155.477h-45.328c-0.845,0-1.53-0.685-1.53-1.53v-15.486c0-0.845,0.685-1.53,1.53-1.53
						h45.328c0.845,0,1.53,0.685,1.53,1.53v15.486C402.406,154.792,401.721,155.477,400.876,155.477z"/>
					<path style="fill:#F2FFFF;" d="M400.299,154.873h-44.786c-0.826,0-1.495-0.669-1.495-1.495v-14.951
						c0-0.826,0.669-1.495,1.495-1.495h44.786c0.826,0,1.495,0.669,1.495,1.495v14.951
						C401.794,154.203,401.124,154.873,400.299,154.873z"/>
					<g>
						<path style="fill:#091A50;" d="M364.826,150.583l0.396-3.291l-2.613,2.058l-1.074-1.855l2.941-1.391l-2.986-1.301l1.075-1.855
							l2.647,1.957l-0.385-3.19h2.126l-0.317,3.144l2.579-1.957l1.074,1.855l-2.986,1.346l2.986,1.436l-1.074,1.844l-2.579-2.025
							l0.317,3.223H364.826z"/>
						<path style="fill:#091A50;" d="M376.842,150.583l0.396-3.291l-2.613,2.058l-1.074-1.855l2.941-1.391l-2.986-1.301l1.074-1.855
							l2.647,1.957l-0.385-3.19h2.126l-0.317,3.144l2.579-1.957l1.074,1.855l-2.986,1.346l2.986,1.436l-1.074,1.844l-2.579-2.025
							l0.317,3.223H376.842z"/>
						<path style="fill:#091A50;" d="M388.859,150.583l0.396-3.291l-2.613,2.058l-1.074-1.855l2.941-1.391l-2.986-1.301l1.074-1.855
							l2.647,1.957l-0.385-3.19h2.126l-0.317,3.144l2.579-1.957l1.074,1.855l-2.986,1.346l2.986,1.436l-1.074,1.844l-2.579-2.025
							l0.317,3.223H388.859z"/>
					</g>
				</g>
			</g>
			<g>
				<g>
					<g>
						
							<linearGradient id="SVGID_00000087402364106942582620000000990109592549749653_" gradientUnits="userSpaceOnUse" x1="361.0176" y1="399.0132" x2="361.0176" y2="297.1523">
							<stop  offset="0" style="stop-color:#FFFFFF"/>
							<stop  offset="0.1297" style="stop-color:#FBFDFE"/>
							<stop  offset="0.255" style="stop-color:#F0F8FA"/>
							<stop  offset="0.3786" style="stop-color:#DCF0F4"/>
							<stop  offset="0.5011" style="stop-color:#C1E4EC"/>
							<stop  offset="0.6229" style="stop-color:#9DD5E2"/>
							<stop  offset="0.7442" style="stop-color:#72C3D5"/>
							<stop  offset="0.8628" style="stop-color:#40ADC5"/>
							<stop  offset="0.9814" style="stop-color:#0694B4"/>
						</linearGradient>
						<path style="fill:url(#SVGID_00000087402364106942582620000000990109592549749653_);" d="M322.66,397.642l-0.93-0.369
							c15.165-38.217,42.877-71.82,78.029-94.62l0.545,0.84C365.324,326.179,337.75,359.615,322.66,397.642z"/>
					</g>
					
						<linearGradient id="SVGID_00000005268866587210208740000011641619939861761441_" gradientUnits="userSpaceOnUse" x1="370.6913" y1="404.6721" x2="370.6913" y2="293.7655">
						<stop  offset="0" style="stop-color:#FFFFFF"/>
						<stop  offset="0.1297" style="stop-color:#FBFDFE"/>
						<stop  offset="0.255" style="stop-color:#F0F8FA"/>
						<stop  offset="0.3786" style="stop-color:#DCF0F4"/>
						<stop  offset="0.5011" style="stop-color:#C1E4EC"/>
						<stop  offset="0.6229" style="stop-color:#9DD5E2"/>
						<stop  offset="0.7442" style="stop-color:#72C3D5"/>
						<stop  offset="0.8628" style="stop-color:#40ADC5"/>
						<stop  offset="0.9814" style="stop-color:#0694B4"/>
					</linearGradient>
					<path style="fill:url(#SVGID_00000005268866587210208740000011641619939861761441_);" d="M366.952,320.751
						c0,0,0.188-0.535,0.424-1.51c0.249-0.962,0.495-2.422,0.756-4.131c0.495-3.443,0.708-8.293-0.488-13.858
						c1.858-0.539,3.987-0.756,6.176-0.975c2.205-0.2,4.538-0.32,6.989-0.448c2.443-0.139,5.122-0.126,7.853-0.285
						c1.373-0.07,2.774-0.162,4.203-0.287c1.416-0.146,2.905-0.256,4.434-0.394c-5.28,3.249-10.746,7.822-15.89,14.004
						c-5.492,6.765-13.159,14.617-19.963,22.794c-1.798,1.952-3.385,4.061-5.037,6.023c-1.634,1.978-3.271,3.867-4.688,5.794
						c-1.47,1.884-2.873,3.682-4.181,5.358c-1.286,1.693-2.4,3.321-3.457,4.747c0.845-1.259,1.588-2.543,2.242-3.863
						c0.65-1.323,1.319-2.601,1.852-3.97c0.547-1.358,1.017-2.763,1.424-4.223c0.404-1.462,0.738-2.985,1.107-4.503
						c0.695-3.072,1.19-6.401,1.598-10.056c0.5-3.574,0.944-7.447,1.416-11.727c1.254-9.592,5.025-14.443,10.408-16.763
						c2.33,5.541,2.985,10.073,3.099,13.232C367.394,318.926,366.952,320.751,366.952,320.751z"/>
					<g>
						<path style="fill:#0485A4;" d="M415.507,303.859c1.02-1.447,1.713-3.275,2.255-5.374c0.563-2.058,1-4.34,1.44-6.803
							c1.573-0.077,3.052-0.069,4.436,0.004c1.381,0.066,2.67,0.207,3.893,0.462c2.427,0.468,4.454,1.098,6.079,1.728
							c3.247,1.263,4.911,2.521,4.911,2.521c-9.078,1.717-14.621,6.095-19.774,11.102c-1.297,1.251-2.596,2.514-3.958,3.764
							c-1.342,1.287-2.695,2.652-4.206,3.937c-3.066,2.507-6.399,5.252-10.9,7.687c-8.983,5.257-19.415,9.551-29.838,15.303
							c-10.363,5.714-20.749,12.897-28.259,22.794c3.651-4.975,9.982-13.793,17.571-22.662c3.814-4.409,7.731-9.016,11.63-13.288
							c0.952-1.093,1.893-2.173,2.818-3.234c0.958-1.027,1.89-2.049,2.789-3.062c0.899-1.013,1.766-2.018,2.593-3.01
							c0.411-0.499,0.816-0.991,1.214-1.475c0.409-0.47,0.812-0.932,1.207-1.386c3.047-3.564,6.074-6.759,9.265-9.246
							c1.569-1.28,3.122-2.46,4.652-3.544c1.578-1.012,3.139-1.92,4.663-2.746c1.526-0.825,3.019-1.562,4.475-2.217
							c1.492-0.595,2.954-1.095,4.367-1.533c1.414-0.435,2.785-0.799,4.108-1.098c0.663-0.147,1.308-0.29,1.953-0.395
							c0.653-0.09,1.293-0.165,1.92-0.227C417.262,296.039,416.662,301.127,415.507,303.859z"/>
					</g>
				</g>
				<g>
					<g>
						<g>
							
								<linearGradient id="SVGID_00000067953113231686565420000008406182112056179350_" gradientUnits="userSpaceOnUse" x1="140.5474" y1="399.0132" x2="140.5474" y2="297.1521">
								<stop  offset="0" style="stop-color:#FFFFFF"/>
								<stop  offset="0.1297" style="stop-color:#FBFDFE"/>
								<stop  offset="0.255" style="stop-color:#F0F8FA"/>
								<stop  offset="0.3786" style="stop-color:#DCF0F4"/>
								<stop  offset="0.5011" style="stop-color:#C1E4EC"/>
								<stop  offset="0.6229" style="stop-color:#9DD5E2"/>
								<stop  offset="0.7442" style="stop-color:#72C3D5"/>
								<stop  offset="0.8628" style="stop-color:#40ADC5"/>
								<stop  offset="0.9814" style="stop-color:#0694B4"/>
							</linearGradient>
							<path style="fill:url(#SVGID_00000067953113231686565420000008406182112056179350_);" d="M179.957,364.341
								c-15.324-42.576-43.65-81.686-79.76-110.126l0.619-0.785c36.255,28.554,64.695,67.822,80.081,110.573L179.957,364.341z"/>
						</g>
						
							<linearGradient id="SVGID_00000033358790875972957000000016499534057160485513_" gradientUnits="userSpaceOnUse" x1="131.6267" y1="371.1623" x2="131.6267" y2="240.8798">
							<stop  offset="0" style="stop-color:#FFFFFF"/>
							<stop  offset="0.1297" style="stop-color:#FBFDFE"/>
							<stop  offset="0.255" style="stop-color:#F0F8FA"/>
							<stop  offset="0.3786" style="stop-color:#DCF0F4"/>
							<stop  offset="0.5011" style="stop-color:#C1E4EC"/>
							<stop  offset="0.6229" style="stop-color:#9DD5E2"/>
							<stop  offset="0.7442" style="stop-color:#72C3D5"/>
							<stop  offset="0.8628" style="stop-color:#40ADC5"/>
							<stop  offset="0.9814" style="stop-color:#0694B4"/>
						</linearGradient>
						<path style="fill:url(#SVGID_00000033358790875972957000000016499534057160485513_);" d="M125.852,247.827
							c-3.111,0.035-6.497,0.227-9.919,0.235c-3.46,0.053-6.932-0.116-10.675-0.267c5.579,4.105,11.073,9.916,15.762,17.739
							c4.991,8.536,12.522,18.143,19.315,27.816c6.847,9.604,13.464,18.869,17.662,25.545c-0.849-1.455-1.548-2.952-2.115-4.505
							c-0.562-1.556-1.105-3.094-1.467-4.742c-0.784-3.255-0.971-6.875-1.052-10.694c-0.061-3.833,0.216-8.029,0.69-12.674
							c0.376-4.567,0.917-9.558,1.511-15.093c1.149-12.467-2.489-18.589-8.839-21.241
							C138.551,246.256,132.071,247.756,125.852,247.827z"/>
						<g>
							<path style="fill:#0485A4;" d="M81.223,256.015c-0.771-1.961-1.027-4.481-1.023-7.399c-0.021-2.878,0.19-6.108,0.434-9.59
								c-3.755-0.06-7.087,0.238-10.122,0.999c-3.018,0.731-5.604,1.69-7.712,2.643c-4.212,1.909-6.543,3.775-6.543,3.775
								c10.071,2.216,15.27,8.245,19.867,14.887c1.161,1.662,2.316,3.34,3.549,4.993c1.209,1.688,2.435,3.439,3.859,5.087
								c2.901,3.238,6.178,6.594,10.982,9.471c9.571,6.138,21.652,10.565,33.801,16.719c12.076,6.093,24.241,13.941,32.273,25.196
								c-3.805-5.706-10.336-15.816-17.96-26.295c-7.541-10.551-16.006-21.538-21.61-30.969c-2.785-4.526-5.7-8.538-8.92-11.719
								c-1.58-1.625-3.173-3.114-4.767-4.474c-1.649-1.291-3.304-2.446-4.943-3.485c-1.639-1.038-3.266-1.956-4.87-2.763
								c-1.646-0.749-3.279-1.375-4.873-1.91c-3.211-1.035-6.206-1.803-9.188-2.001C81.577,245.167,80.708,252.262,81.223,256.015z"
								/>
						</g>
					</g>
					<g>
						<path style="fill:#0485A4;" d="M146.029,252.387c-1.481-2.691-3.635-5.558-6.517-8.225c-2.863-2.666-6.377-5.145-10.069-7.028
							c0.936-2.895,1.914-5.796,2.805-8.714c0.948-2.922,1.904-5.866,2.596-8.85c0.367-1.493,0.617-2.995,0.913-4.515
							c0.289-1.52,0.51-3.056,0.646-4.614c0.279-3.116,0.159-6.32-0.182-9.668c-0.302-2.557-0.322-4.823-0.123-6.83
							c0.175-2.009,0.74-3.751,1.357-5.287c1.282-3.071,3.158-5.293,5.186-7.106c4.206-3.616,8.902-5.611,10.557-9.763
							c-1.318,8.043,2.199,11.134,6.011,15.645c3.772,4.527,7.317,10.341,7.565,24.036c-3.196,1.848-6.211,4.283-8.309,7.475
							c2.296-1.883,5.144-3.355,8.297-4.5c-0.037,0.914-0.034,1.857-0.04,2.839c-0.404,13.871,2.052,22.437,4.622,28.313
							c1.38,2.939,2.932,5.218,4.422,7.222c0.755,1.001,1.494,1.934,2.246,2.837c0.782,0.898,1.551,1.772,2.298,2.666
							c-3.282,1.683-6.23,3.617-8.642,5.73c-2.418,2.114-4.3,4.408-5.323,6.749c1.751-2.663,4.144-4.895,6.754-6.741
							c2.606-1.846,5.441-3.31,8.23-4.48c1.017,1.296,1.981,2.672,2.866,4.254c1.64,2.756,1.063,5.8-0.729,9.223
							c-0.916,1.715-2.024,3.492-3.294,5.353c-1.273,1.861-2.697,3.804-4.137,5.813c-2.936,4.034-5.671,8.266-7.448,12.579
							c-0.859,2.144-1.563,4.336-1.692,6.43c-0.162,2.105,0.066,4.177,0.81,6.158c0,0-0.378-0.974-1.331-2.628
							c-0.948-1.658-2.529-3.974-4.671-6.807c-2.163-2.827-5.233-6.057-8.952-9.673c-1.896-1.798-4.04-3.668-6.463-5.598
							c-2.342-1.951-4.939-3.966-7.857-6.03c-1.861-1.332-3.553-2.71-4.915-4.161c-1.368-1.449-2.526-2.944-3.498-4.473
							c-0.972-1.529-1.757-3.092-2.381-4.68c-0.636-1.585-0.985-3.217-1.268-4.853c-0.266-1.639-0.397-3.294-0.417-4.96
							c-0.017-1.666,0.047-3.338,0.307-5.032c0.468-3.381,1.272-6.784,2.199-10.194c5.765,1.755,10.135,4.812,13.058,7.386
							c1.46,1.29,2.553,2.468,3.346,3.317C145.635,251.853,146.029,252.387,146.029,252.387z"/>
						<g>
							
								<linearGradient id="SVGID_00000127038705118831244470000008065047044410928782_" gradientUnits="userSpaceOnUse" x1="166.513" y1="399.0132" x2="166.513" y2="297.152">
								<stop  offset="0" style="stop-color:#FFFFFF"/>
								<stop  offset="0.1297" style="stop-color:#FBFDFE"/>
								<stop  offset="0.255" style="stop-color:#F0F8FA"/>
								<stop  offset="0.3786" style="stop-color:#DCF0F4"/>
								<stop  offset="0.5011" style="stop-color:#C1E4EC"/>
								<stop  offset="0.6229" style="stop-color:#9DD5E2"/>
								<stop  offset="0.7442" style="stop-color:#72C3D5"/>
								<stop  offset="0.8628" style="stop-color:#40ADC5"/>
								<stop  offset="0.9814" style="stop-color:#0694B4"/>
							</linearGradient>
							<path style="fill:url(#SVGID_00000127038705118831244470000008065047044410928782_);" d="M182.729,342.876
								c-26.989-48.677-38.134-106.018-31.383-161.46l0.993,0.121c-6.726,55.234,4.377,112.36,31.265,160.855L182.729,342.876z"/>
						</g>
						<g>
							
								<linearGradient id="SVGID_00000074427688073058048100000017437646404502675081_" gradientUnits="userSpaceOnUse" x1="146.1457" y1="399.0133" x2="146.1457" y2="297.1521">
								<stop  offset="0" style="stop-color:#FFFFFF"/>
								<stop  offset="0.1297" style="stop-color:#FBFDFE"/>
								<stop  offset="0.255" style="stop-color:#F0F8FA"/>
								<stop  offset="0.3786" style="stop-color:#DCF0F4"/>
								<stop  offset="0.5011" style="stop-color:#C1E4EC"/>
								<stop  offset="0.6229" style="stop-color:#9DD5E2"/>
								<stop  offset="0.7442" style="stop-color:#72C3D5"/>
								<stop  offset="0.8628" style="stop-color:#40ADC5"/>
								<stop  offset="0.9814" style="stop-color:#0694B4"/>
							</linearGradient>
							<path style="fill:url(#SVGID_00000074427688073058048100000017437646404502675081_);" d="M158.52,282.768
								c-0.448-1.472-1.205-3.701-2.594-6.056c-0.654-1.136-1.411-2.282-2.25-3.412c-0.431-0.581-0.894-1.166-1.378-1.755
								c-0.47-0.602-0.96-1.198-1.478-1.793c-2.197-2.522-4.771-4.884-7.65-7.022c-3.338-2.524-6.725-4.568-10.357-6.249l0.42-0.908
								c3.698,1.712,7.145,3.791,10.537,6.357c2.934,2.177,5.561,4.589,7.805,7.165c0.531,0.608,1.032,1.218,1.504,1.824
								c0.487,0.591,0.96,1.19,1.4,1.784c0.862,1.161,1.639,2.34,2.311,3.504c1.441,2.442,2.223,4.747,2.687,6.269L158.52,282.768z"
								/>
						</g>
						<g>
							
								<linearGradient id="SVGID_00000128482838384760796880000007686971279176669603_" gradientUnits="userSpaceOnUse" x1="161.9403" y1="399.0136" x2="161.9403" y2="297.1521">
								<stop  offset="0" style="stop-color:#FFFFFF"/>
								<stop  offset="0.1297" style="stop-color:#FBFDFE"/>
								<stop  offset="0.255" style="stop-color:#F0F8FA"/>
								<stop  offset="0.3786" style="stop-color:#DCF0F4"/>
								<stop  offset="0.5011" style="stop-color:#C1E4EC"/>
								<stop  offset="0.6229" style="stop-color:#9DD5E2"/>
								<stop  offset="0.7442" style="stop-color:#72C3D5"/>
								<stop  offset="0.8628" style="stop-color:#40ADC5"/>
								<stop  offset="0.9814" style="stop-color:#0694B4"/>
							</linearGradient>
							<path style="fill:url(#SVGID_00000128482838384760796880000007686971279176669603_);" d="M156.042,272.673
								c-0.152-0.634-0.279-1.283-0.377-1.932c-0.074-0.577-0.117-1.178-0.142-1.961c-0.034-1.276,0.035-2.563,0.207-3.826
								c0.374-2.64,1.104-5.031,2.17-7.111c2.267-4.396,5.825-7.961,10.02-10.041l0.444,0.896c-4.006,1.986-7.407,5.396-9.576,9.603
								c-1.029,2.007-1.706,4.228-2.068,6.791c-0.164,1.207-0.23,2.44-0.197,3.659c0.023,0.748,0.064,1.319,0.132,1.852
								c0.092,0.608,0.214,1.232,0.359,1.838L156.042,272.673z"/>
						</g>
						<g>
							
								<linearGradient id="SVGID_00000038389621527476289550000007902580666967133833_" gradientUnits="userSpaceOnUse" x1="144.4646" y1="399.0133" x2="144.4646" y2="297.152">
								<stop  offset="0" style="stop-color:#FFFFFF"/>
								<stop  offset="0.1297" style="stop-color:#FBFDFE"/>
								<stop  offset="0.255" style="stop-color:#F0F8FA"/>
								<stop  offset="0.3786" style="stop-color:#DCF0F4"/>
								<stop  offset="0.5011" style="stop-color:#C1E4EC"/>
								<stop  offset="0.6229" style="stop-color:#9DD5E2"/>
								<stop  offset="0.7442" style="stop-color:#72C3D5"/>
								<stop  offset="0.8628" style="stop-color:#40ADC5"/>
								<stop  offset="0.9814" style="stop-color:#0694B4"/>
							</linearGradient>
							<path style="fill:url(#SVGID_00000038389621527476289550000007902580666967133833_);" d="M150.973,242.083
								c-0.125-1.113-0.434-2.253-0.919-3.39c-0.544-1.267-1.078-2.279-1.68-3.183c-1.17-1.788-2.773-3.628-4.767-5.472
								c-1.72-1.58-3.372-2.867-4.619-3.813c-1.203-0.896-2.018-1.413-2.026-1.418l0.533-0.846c0.035,0.021,0.854,0.54,2.093,1.464
								c1.268,0.961,2.944,2.267,4.697,3.876c2.055,1.901,3.71,3.804,4.923,5.656c0.635,0.953,1.196,2.016,1.765,3.341
								c0.523,1.227,0.857,2.462,0.993,3.672L150.973,242.083z"/>
						</g>
						<g>
							
								<linearGradient id="SVGID_00000166640398682130611370000001134922109347445917_" gradientUnits="userSpaceOnUse" x1="157.6474" y1="399.0133" x2="157.6474" y2="297.1521">
								<stop  offset="0" style="stop-color:#FFFFFF"/>
								<stop  offset="0.1297" style="stop-color:#FBFDFE"/>
								<stop  offset="0.255" style="stop-color:#F0F8FA"/>
								<stop  offset="0.3786" style="stop-color:#DCF0F4"/>
								<stop  offset="0.5011" style="stop-color:#C1E4EC"/>
								<stop  offset="0.6229" style="stop-color:#9DD5E2"/>
								<stop  offset="0.7442" style="stop-color:#72C3D5"/>
								<stop  offset="0.8628" style="stop-color:#40ADC5"/>
								<stop  offset="0.9814" style="stop-color:#0694B4"/>
							</linearGradient>
							<path style="fill:url(#SVGID_00000166640398682130611370000001134922109347445917_);" d="M151.6,247.654
								c-0.35-3.104,0.438-6.34,2.217-9.111c2.013-3.134,5.346-5.557,9.639-7.007l0.32,0.947c-4.018,1.357-7.256,3.701-9.117,6.6
								c-1.656,2.579-2.389,5.583-2.065,8.459L151.6,247.654z"/>
						</g>
						<g>
							
								<linearGradient id="SVGID_00000177485799675000657120000017844869503054534789_" gradientUnits="userSpaceOnUse" x1="144.9854" y1="399.0133" x2="144.9854" y2="297.1521">
								<stop  offset="0" style="stop-color:#FFFFFF"/>
								<stop  offset="0.1297" style="stop-color:#FBFDFE"/>
								<stop  offset="0.255" style="stop-color:#F0F8FA"/>
								<stop  offset="0.3786" style="stop-color:#DCF0F4"/>
								<stop  offset="0.5011" style="stop-color:#C1E4EC"/>
								<stop  offset="0.6229" style="stop-color:#9DD5E2"/>
								<stop  offset="0.7442" style="stop-color:#72C3D5"/>
								<stop  offset="0.8628" style="stop-color:#40ADC5"/>
								<stop  offset="0.9814" style="stop-color:#0694B4"/>
							</linearGradient>
							<path style="fill:url(#SVGID_00000177485799675000657120000017844869503054534789_);" d="M150.423,212.592l-1-0.012
								c0.019-1.605-0.228-3.358-0.735-5.21c-0.21-0.782-0.491-1.627-0.911-2.744c-0.329-0.923-0.708-1.832-1.131-2.709
								c-1.832-3.798-4.353-6.873-7.101-8.658l0.545-0.839c2.899,1.884,5.547,5.103,7.456,9.063c0.438,0.909,0.832,1.851,1.17,2.799
								c0.428,1.14,0.718,2.014,0.936,2.826C150.185,209.048,150.443,210.895,150.423,212.592z"/>
						</g>
						<g>
							
								<linearGradient id="SVGID_00000144298742638381267980000013712308342215967393_" gradientUnits="userSpaceOnUse" x1="154.9512" y1="399.0131" x2="154.9512" y2="297.1522">
								<stop  offset="0" style="stop-color:#FFFFFF"/>
								<stop  offset="0.1297" style="stop-color:#FBFDFE"/>
								<stop  offset="0.255" style="stop-color:#F0F8FA"/>
								<stop  offset="0.3786" style="stop-color:#DCF0F4"/>
								<stop  offset="0.5011" style="stop-color:#C1E4EC"/>
								<stop  offset="0.6229" style="stop-color:#9DD5E2"/>
								<stop  offset="0.7442" style="stop-color:#72C3D5"/>
								<stop  offset="0.8628" style="stop-color:#40ADC5"/>
								<stop  offset="0.9814" style="stop-color:#0694B4"/>
							</linearGradient>
							<path style="fill:url(#SVGID_00000144298742638381267980000013712308342215967393_);" d="M150.419,212.975l-1-0.013
								c0.052-4.246,3.417-9.385,10.814-11.294l0.25,0.968C153.634,204.404,150.465,209.235,150.419,212.975z"/>
						</g>
					</g>
				</g>
			</g>
			<g>
				<g>
					<g>
						<path style="fill:#091A50;" d="M195.181,424.718c-11.882,0-21.55-9.667-21.55-21.549V135.16c0-11.882,9.667-21.55,21.55-21.55
							h109.637c11.883,0,21.55,9.667,21.55,21.55v268.009c0,11.882-9.667,21.549-21.55,21.549H195.181z"/>
						<path style="fill:#0694B4;" d="M304.818,113.61c11.883,0,21.55,9.667,21.55,21.55v268.009c0,11.882-9.667,21.549-21.55,21.549
							H195.181c-11.882,0-21.55-9.667-21.55-21.549V135.16c0-11.883,9.667-21.55,21.55-21.55H304.818 M304.818,111.451H195.181
							c-13.073,0-23.709,10.636-23.709,23.709v268.009c0,13.072,10.636,23.708,23.709,23.708h109.637
							c13.073,0,23.709-10.636,23.709-23.708V135.16C328.527,122.087,317.892,111.451,304.818,111.451L304.818,111.451z"/>
					</g>
					<path style="fill:#F2FFFF;" d="M317.735,135.161v267.998c0,7.136-5.785,12.92-12.92,12.92H195.182
						c-7.136,0-12.92-5.784-12.92-12.92V135.161c0-7.136,5.784-12.92,12.92-12.92h15.911c0.422,0,0.765,0.343,0.765,0.765v2.998
						c0,3.746,3.036,6.783,6.783,6.783h62.714c3.746,0,6.783-3.036,6.783-6.783v-2.998c0-0.422,0.342-0.765,0.765-0.765h15.912
						C311.95,122.241,317.735,128.025,317.735,135.161z"/>
				</g>
				<g>
					<g>
						<path style="fill:#BDDDFF;" d="M308.046,195.75l-6.936-3.987l8.885-15.457c7.122-12.388,4.047-27.565-6.853-33.831
							c-10.897-6.264-25.562-1.285-32.683,11.104l-2.439,4.242l-6.935-3.987l2.439-4.242c9.319-16.212,28.885-22.512,43.606-14.052
							c14.725,8.465,19.122,28.542,9.802,44.754L308.046,195.75z"/>
						<path style="fill:#BDDDFF;" d="M285.718,262.824l-62.201-20.895c-3.156-1.06-4.855-4.478-3.795-7.635l20.895-62.202
							c1.06-3.156,4.478-4.855,7.635-3.795l62.202,20.895c3.156,1.06,4.855,4.478,3.795,7.634l-20.895,62.202
							C292.293,262.185,288.875,263.885,285.718,262.824z"/>
						<path style="fill:#BDDDFF;" d="M273.975,218.568c3.238-1.272,5.893-3.953,6.983-7.572c1.761-5.847-1.397-12.259-7.107-14.423
							c-6.295-2.385-13.253,0.949-15.376,7.271c-1.157,3.444-0.627,7.041,1.134,9.914c0.594,0.968,0.546,2.2-0.048,3.168
							l-7.951,12.961c-0.983,1.602-0.221,3.702,1.561,4.301l13.58,4.562c1.782,0.599,3.657-0.615,3.841-2.486l1.486-15.135
							C272.191,219.99,272.911,218.986,273.975,218.568z"/>
					</g>
					<g>
						<g>
							<g>
								<path style="fill:#0694B4;" d="M307.046,192.75l-6.936-3.987l8.885-15.457c7.122-12.388,4.047-27.565-6.853-33.831
									c-10.897-6.264-25.562-1.285-32.683,11.104l-2.439,4.242l-6.935-3.987l2.439-4.242
									c9.319-16.212,28.885-22.512,43.606-14.052c14.725,8.465,19.122,28.542,9.802,44.754L307.046,192.75z"/>
							</g>
							<path style="fill:#0485A4;" d="M284.718,259.824l-62.201-20.895c-3.156-1.06-4.855-4.478-3.795-7.635l20.895-62.202
								c1.06-3.156,4.478-4.855,7.635-3.795l62.202,20.895c3.156,1.06,4.855,4.478,3.795,7.634l-20.895,62.202
								C291.293,259.185,287.875,260.885,284.718,259.824z"/>
							<path style="fill:#091A50;" d="M272.975,215.568c3.238-1.272,5.893-3.953,6.983-7.572c1.761-5.847-1.397-12.259-7.107-14.423
								c-6.295-2.385-13.253,0.949-15.376,7.271c-1.157,3.444-0.627,7.041,1.134,9.914c0.594,0.968,0.546,2.2-0.048,3.168
								l-7.951,12.961c-0.983,1.602-0.221,3.702,1.561,4.301l13.58,4.562c1.782,0.599,3.657-0.615,3.841-2.486l1.486-15.135
								C271.191,216.99,271.911,215.986,272.975,215.568z"/>
						</g>
					</g>
				</g>
				<g>
					<g>
						<path style="fill:#091A50;" d="M238.52,292.342h-19.653c-0.653,0-1.219-0.45-1.368-1.086l-0.63-2.704
							c-0.236-1.011-1.137-1.727-2.175-1.727h-13.907c-1.234,0-2.234,1-2.234,2.234v36.429c0,1.547,1.254,2.802,2.802,2.802h37.165
							c1.547,0,2.802-1.254,2.802-2.802v-30.345C241.322,293.596,240.067,292.342,238.52,292.342z"/>
						<rect x="203.329" y="291.201" style="fill:#F2FFFF;" width="39.278" height="31.745"/>
						<path style="fill:#091A50;" d="M238.52,329.273h-37.165c-1.547,0-2.802-1.254-2.802-2.802v-30.345
							c0-1.547,1.254-2.802,2.802-2.802h37.165c1.547,0,2.801,1.254,2.801,2.802v30.345
							C241.322,328.019,240.067,329.273,238.52,329.273z"/>
					</g>
					<g>
						<path style="fill:#091A50;" d="M238.52,341.619h-19.653c-0.653,0-1.219-0.45-1.368-1.086l-0.63-2.704
							c-0.236-1.011-1.137-1.727-2.175-1.727h-13.907c-1.234,0-2.234,1-2.234,2.234v36.429c0,1.547,1.254,2.801,2.802,2.801h37.165
							c1.547,0,2.802-1.254,2.802-2.802v-30.345C241.322,342.873,240.067,341.619,238.52,341.619z"/>
						<rect x="203.329" y="340.478" style="fill:#F2FFFF;" width="39.278" height="31.745"/>
						<path style="fill:#091A50;" d="M238.52,378.551h-37.165c-1.547,0-2.802-1.254-2.802-2.802v-30.345
							c0-1.547,1.254-2.801,2.802-2.801h37.165c1.547,0,2.801,1.254,2.801,2.801v30.345
							C241.322,377.296,240.067,378.551,238.52,378.551z"/>
					</g>
					<g>
						<path style="fill:#091A50;" d="M298.645,341.619h-19.653c-0.653,0-1.22-0.45-1.368-1.086l-0.63-2.704
							c-0.236-1.011-1.137-1.727-2.175-1.727h-13.907c-1.234,0-2.234,1-2.234,2.234v36.429c0,1.547,1.254,2.801,2.802,2.801h37.165
							c1.547,0,2.802-1.254,2.802-2.802v-30.345C301.447,342.873,300.193,341.619,298.645,341.619z"/>
						<rect x="263.455" y="340.478" style="fill:#F2FFFF;" width="39.278" height="31.745"/>
						<path style="fill:#091A50;" d="M298.645,378.551H261.48c-1.547,0-2.802-1.254-2.802-2.802v-30.345
							c0-1.547,1.254-2.801,2.802-2.801h37.165c1.547,0,2.802,1.254,2.802,2.801v30.345
							C301.447,377.296,300.193,378.551,298.645,378.551z"/>
					</g>
				</g>
				<path style="fill:#BDDDFF;" d="M299.73,410.187H200.27c-0.948,0-1.717-0.769-1.717-1.717v-14.499
					c0-0.948,0.769-1.717,1.717-1.717h99.461c0.948,0,1.717,0.769,1.717,1.717v14.499
					C301.447,409.419,300.678,410.187,299.73,410.187z"/>
			</g>
			<g>
				<g>
					<path style="fill:#091A50;" d="M307.985,285.835l-19.311,3.648c-0.642,0.121-1.282-0.216-1.546-0.813l-1.121-2.54
						c-0.419-0.95-1.438-1.486-2.458-1.293l-13.665,2.582c-1.212,0.229-2.009,1.397-1.78,2.61l6.763,35.796
						c0.287,1.52,1.753,2.52,3.273,2.233l36.519-6.9c1.52-0.287,2.52-1.753,2.233-3.273l-5.634-29.818
						C310.971,286.547,309.506,285.548,307.985,285.835z"/>
					
						<rect x="275.8" y="287.325" transform="matrix(0.9826 -0.1857 0.1857 0.9826 -51.1529 60.1193)" style="fill:#F2FFFF;" width="39.277" height="31.745"/>
					<path style="fill:#091A50;" d="M314.842,322.125l-36.519,6.9c-1.52,0.287-2.986-0.712-3.273-2.233l-5.634-29.818
						c-0.287-1.52,0.712-2.986,2.233-3.273l36.519-6.9c1.52-0.287,2.986,0.712,3.273,2.233l5.634,29.818
						C317.362,320.372,316.362,321.837,314.842,322.125z"/>
				</g>
				<path style="fill:#0E336A;" d="M309.408,272.086c-1.99-4.306,0.282-13.586-8.429-15.859
					c-8.711-2.272-21.021,11.173-19.127,19.885c1.894,8.711,3.497,11.309,3.497,11.309L309.408,272.086z"/>
				<path style="fill:#0E3E86;" d="M278.727,344.542c-5.959-2.269-10.641-10.287-10.702-15.349c-0.06-5.062,0.603-7.774-0.362-9.22
					c-0.964-1.446-3.134-3.616-2.41-4.52c0.723-0.904,0.844-1.386,0.844-1.386s-1.748-1.928-0.06-2.832c0,0-1.435-1.627-0.928-2.23
					c0.506-0.603,3.218-1.627,3.218-1.627s-0.464-1.073,2.67-2.037l0.486,2.57c0,0,0.942,3.202,4.317,4.167L278.727,344.542z"/>
				<path style="fill:#0E336A;" d="M274.454,311.512c0.399,2.755-2.21,13.042-2.933,14.488c-0.723,1.446,0.848,8.556,0.848,8.556
					l5.178-10.123l-2.454-12.604L274.454,311.512z"/>
				<path style="fill:#0E3E86;" d="M331.425,271.559c15.18,5.255,33.159,20.442,36.825,25.504
					c3.666,5.062,0.475,24.285,0.475,24.285l-34.513-35.457L331.425,271.559z"/>
				<path style="fill:#0E336A;" d="M342.085,281.769c5.568,11.068,15.866,19.483,15.866,19.483l5.91,11.978l-18.397-1.331
					L342.085,281.769z"/>
				<path style="fill:#0E3E86;" d="M427.878,403.501c-3.59,1.31-7.93-1.22-13.64-9.75c-3.3-4.94-7.17-8.11-7.17-8.11
					s-7.09,5.78-14.57,9.63c-7.81,4.03-10.81,10.12-17.99,8.82c-4.73-0.86-14.1-17.31-21.9-30.75c-4.02-6.92-7.62-13.04-9.95-15.82
					c0,0-14.25,12.82-19.5,20.52c7.061,4.878,6.47,10.93,9.22,22.22c3.48,14.32,10.88,23.76,10.88,23.76
					c5.31,8.27,5.18,11.86,5.18,11.86h-32.44c0,0-0.98-0.88,0.39-3.15c1.37-2.28,8.42-3.11,8.42-3.11l5.98-6.16
					c0,0-3.94-9.45-12.77-19.89c-8.05-9.52-17.43-22.32-15.76-28.6c1.14-4.24,5.2-13.51,8.31-20.33c2.04-4.48,3.67-7.9,3.79-8.15
					c0.01-0.01,0.01-0.02,0.01-0.02c-5.62-5.6-3.92-9.21-4.91-12.9c-0.01-0.05-0.03-0.11-0.05-0.17
					c-0.053-0.202-0.134-0.395-0.2-0.592c-0.96-2.545-3.505-5.193-10.89-8.608c-14.3-6.62-19.86-15.17-19.57-22.91
					c0.08-2.48,0.77-4.87,1.96-7.09c7.18-13.38,22.83-22.47,36.84-23.62c14.02-1.14,20.55,1.01,27.72,17.7
					c7.17,16.7,30.32,28.66,24.45,48.11c0,0,0.93,3.97,2.08,9.22c1.5,6.81,3.38,15.78,4.12,21.07c1.3,9.37,2.81,13.95,4.44,14.61
					c11.31-6.58,14.72-3.88,21.86-8.72c3.95-5.63,4.99-7.03,6.62-7.93c3.85-2.11,9.79-1.73,12.72,9.41
					c2.93,11.13,5.54,10.48,7.82,16.35C431.668,396.271,431.458,402.201,427.878,403.501z"/>
				<path style="fill:#0E336A;" d="M380.358,381.291c-4.32,3.41-6.43,8.23-6.79,11.99c0,0-1.05-4.47,0.94-11.05
					c2-6.58-6.81-30.33-8.22-34.56c0,0-3.21,4.03-11.48,18.1c-1.08,1.84-1.79,4.44-2.2,7.57c-4.02-6.92-7.62-13.04-9.95-15.82
					c0,0-14.25,12.82-19.5,20.52c7.237,4.953,6.47,10.93,9.22,22.22c3.48,14.32,10.88,23.76,10.88,23.76
					c5.31,8.27,5.18,11.86,5.18,11.86h-9.76c0.75-2.72,0.56-9.48-1.13-12.67s-7.88-11.45-9.39-19.89
					c-1.5-8.45-3.37-23.09-12.57-23.47c0,0-4.13-1.38,0-9.98c4.13-8.6-2.91-14.74-5.02-15.23c0,0,3.49-7.77,3.79-8.15
					c0.01-0.01,0.01-0.02,0.01-0.02s13.232,4.63,27.69,4.63c12.811,0,26.753-14.116,27.66-14.71c3.218,14.919,5.46,25,6.2,30.29
					C377.218,376.051,378.728,380.631,380.358,381.291z"/>
				<path style="fill:#0E336A;" d="M297.558,315.041c0.33,7.04,9.446,11.137,11.65,17.768c-0.96-2.545-3.505-5.193-10.89-8.608
					c-14.3-6.62-19.86-15.17-19.57-22.91L297.558,315.041z"/>
				<path style="fill:#0E3E86;" d="M280.708,294.201c-7.48,10.913-4.973,25.554-7.591,31.838c-2.618,6.284,0.223,16.932,5.61,18.503
					c0,0,8.529-0.873,12.718-9.601c4.189-8.728,4.364-14.488,6.109-19.899C299.301,309.631,286.379,285.928,280.708,294.201z"/>
			</g>
			<g>
				<path style="fill:#0E336A;" d="M182.791,295.861c1.313,4.069,2.091,7.318,6.836,8.444c4.746,1.126,8.011,2.081,15.294,1.041
					c7.283-1.041,14.845-9.485,14.845-9.485l-4.112-3.699c0,0-8.142,3.845-12.271,2.738c-4.13-1.107-8.259-3.618-11.075-2.738
					C189.493,293.042,182.791,295.861,182.791,295.861z"/>
				<path style="fill:#0E336A;" d="M198.605,255.973c0.694,13.95-4.666,29.436-4.122,39.569l-11.692,0.319
					c0,0-4.325-14.967-1.583-28.581L198.605,255.973z"/>
				<g>
					<path style="fill:#0E336A;" d="M145.514,338.379c6.527,9.52,15.458,38.308,15.405,40.418
						c-0.131,5.242-6.225,5.174-6.225,21.361c0,23.786-2.49,23.72-3.951,26.023c-1.348,2.124-3.907,7.721-1.036,10.008h29.455
						c0,0,0.829-2.538-1.024-3.124c-6.465-2.047-8.983-4.884-14.329-7.861c0,0,2.155-18.065,8.551-33.257
						c6.396-15.191,7.462-15.458,4.264-25.585s-11.456-43.593-11.456-43.593L145.514,338.379z"/>
					<g>
						<path style="fill:#0E3E86;" d="M176.884,374.292c-4.352,0.831-17.01,3.109-25.934,2.073
							c-8.917-1.036-30.165-1.874-31.826-1.874c-4.579,9.47-5.736,10.983-7.632,19.182c-0.703,3.031-2.982,0.76-3.074,0
							c-3.202-27.055,0-30.179,0-30.179c10.791-3.734,11.167,2.747,23.854-1.044c9.719-2.911,15.782-3.294,20.631-2.747l1.072,0.135
							l0.085,0.014c1.881,0.277,3.592,0.682,5.303,1.108c5.076,1.285,5.388,0.263,5.388,0.263c-0.447-1.15-1.384-2.605-2.691-4.26
							c-0.227-0.291-0.476-0.596-0.731-0.902c0,0,0,0-0.007-0.007c-3.656-4.387-9.584-9.918-15.81-14.745
							c-9.101-7.049-17.194-11.593-14.269-27.389l36.512-0.625c0,0,3.528,12.04,7.284,23.996c3.06,9.726,6.269,19.402,7.838,22.476
							C186.369,366.617,181.243,373.461,176.884,374.292z"/>
						<path style="fill:#0E336A;" d="M152.903,359.703l1.157,0.149c1.881,0.277,3.592,0.682,5.303,1.108
							c5.076,1.285,5.388,0.263,5.388,0.263c0.541,1.206,0.32,1.929-1.368,1.816C161.664,362.921,158.115,360.883,152.903,359.703z"
							/>
						<path style="fill:#0E336A;" d="M161.323,356.053c-3.656-4.387-9.584-9.918-15.81-14.745
							c-9.101-7.049-17.194-11.593-14.269-27.389l36.512-0.625c0,0,3.528,12.04,7.284,23.996
							C165.064,339.079,156.588,349.295,161.323,356.053z"/>
					</g>
				</g>
				<path style="fill:#0E3E86;" d="M187.881,280.723c-1.761,1.42-3.358,2.57-4.764,3.628c-5.289,3.954-7.873,6.503-6.233,16.492
					c2.08,12.658-5.182,13.077-5.182,13.077h-40.459c-11.409-10.791,0.831-13.695,10.372-37.349
					c0.802-1.988,1.633-3.883,2.485-5.693c9.335-19.793,21.766-29.441,35.063-30.222c0,0,8.938,0.121,14.277,8.115
					C200.781,259.745,197.664,272.836,187.881,280.723z"/>
				<path style="fill:#0E336A;" d="M176.884,300.842c2.08,12.658-5.182,13.077-5.182,13.077h-40.459
					c-11.409-10.791,0.831-13.695,10.372-37.349c0.802-1.988,13.325-13.183,18.231-19.246l21.582,6.091
					c-9.392,13.517-10.386,21.113-5.019,21.532c1.768,0.142,4.217-0.149,6.709-0.596
					C177.829,288.305,175.245,290.854,176.884,300.842z"/>
				<g>
					<path style="fill:#091A50;" d="M214.71,233.405c1.011,8.422-11.977,24.268-19.632,26.339c0,0,0.506-13.331,10.312-24.318
						C213.985,225.796,214.71,233.405,214.71,233.405z"/>
					<path style="fill:#BDDDFF;" d="M200.475,251.218c0,0-3.17,3.523-6.539,6.105c0,0-7.524-6.513-7.524-16.395l3.593-4.941
						l1.797,1.684L200.475,251.218z"/>
					<path style="fill:#FFFFFF;" d="M211.217,239.434c-1.455,7.071-5.069,13.851-9.911,12.417c-0.859-0.256-1.64-0.618-2.35-1.065
						c-5.509-3.436-6.489-11.636-6.489-11.636c-2.527,2.229-3.543-5.53-2.329-6.794c1.221-1.264,3.791-0.909,4.004,2.868
						c0,0,0.113,3.635,1.207,3.621c3.493-0.043,3.677-2.556,3.351-7.689c-0.305-4.693,5.012-6.73,7.618-3.592
						c2.605,3.131,5.133,1.008,5.133,1.008C212.182,231.319,212.047,235.423,211.217,239.434z"/>
					<path style="fill:#BDDDFF;" d="M211.217,239.434c-4.311-1.427-13.671,9.849-12.26,11.352
						c-5.509-3.436-6.489-11.636-6.489-11.636c-2.527,2.229-3.543-5.53-2.329-6.794c1.221-1.264,3.791-0.909,4.004,2.868
						c0,0,0.113,3.635,1.207,3.621c3.493-0.043,3.677-2.556,3.351-7.689c-0.305-4.693,5.012-6.73,7.618-3.592
						c2.605,3.131,5.133,1.008,5.133,1.008C212.182,231.319,212.047,235.423,211.217,239.434z"/>
					<path style="fill:#0E3E86;" d="M195.078,259.744c1.447-7.717,10.408-27.305,17.693-26.953c0.662,0.032,1.939,0.614,1.994,1.746
						c0.182-1.904-0.815-15.171-16.771-16.189c-6.47-0.413-12.93,5.512-14.166,8.769c-1.761,4.643,2.008,7.43,1.031,9.997
						c-1.215,3.191-4.6,0.797-5.698,3.544c0,0,4.194,0.869,6.448,4.964C188.453,250.785,188.592,258.01,195.078,259.744z"/>
				</g>
				<g>
					<g>
						<path style="fill:none;" d="M101.145,330.648c-6.454,3.335-9.035,11.376-5.764,17.958c3.27,6.583,11.153,9.215,17.607,5.88
							c6.454-3.336,9.035-11.376,5.765-17.958C115.483,329.945,107.6,327.312,101.145,330.648z"/>
						<path style="fill:#FFD644;" d="M259.423,243.231l-109.898,56.794c-2.039,1.054-4.486,0.93-6.382-0.372
							c-13.395-9.2-31.382-10.521-46.531-1.456c-18.694,11.186-26.51,35.17-18.084,55.537c9.94,24.025,37.527,34.057,59.939,22.475
							c14.63-7.561,23.271-22.382,23.866-37.989c0.088-2.311,1.46-4.37,3.482-5.415l16.303-8.426l3.675-11.794l86.004-44.446
							l4.436-15.822l-3.062-6.164L259.423,243.231z M112.988,354.486c-6.454,3.335-14.337,0.703-17.607-5.88
							c-3.27-6.582-0.69-14.623,5.764-17.958c6.454-3.336,14.338-0.703,17.608,5.88C122.023,343.11,119.443,351.15,112.988,354.486z
							"/>
					</g>
					<path style="fill:#091A50;" d="M159.994,312.389l116.24-60.072l-3.062-6.164l-116.24,60.072
						c-1.669,0.862-2.336,2.942-1.491,4.644l0,0C156.287,312.571,158.325,313.251,159.994,312.389z"/>
					<path style="fill:#091A50;" d="M274.038,260.151L166.685,315.63c-0.835,0.431-1.854,0.091-2.277-0.76l0,0
						c-0.423-0.851-0.089-1.891,0.745-2.322l110.154-56.927L274.038,260.151z"/>
				</g>
				<path style="fill:#0E3E86;" d="M173.883,319.027c0.483-0.512,0.614-1.261,0.326-1.903c-2.509-5.591-14.098-28.606-13.026-31.669
					c1.173-3.351,20.222-18.196,23.099-27.31c3.141-9.949-2.156-21.111-15.56-11.489c-13.404,9.622-24.797,39.805-24.797,39.805
					c5.027,20.776,17.523,33.614,18.881,35.621c0.555,0.82,2.363,0.69,2.363,0.69c0.059,1.352-0.354,1.137-0.468,2.728
					c-0.118,1.649,1.504,5.204,2.477,7.169c0.417,0.842,1.273,1.376,2.213,1.376h8.089c1.363,0,2.467-1.105,2.467-2.467v-3.296
					c0,0,1.905,3.152,4.874,2.622c0.702-0.125,0.993-0.943,0.51-1.466c-1.043-1.131-3.083-2.487-3.575-5.211
					c-0.586-3.24-2.595-3.921-5.161-4.256C175.673,319.849,174.84,319.856,173.883,319.027L173.883,319.027z"/>
				<path style="fill:#0E336A;" d="M212.619,299.977c-0.574-0.947-1.004-3.563-0.397-4.956c0.447-1.026,1.993-2.15,5.018-3.717
					c0.952-0.493,0.454-1.401,1.614-1.889c2.145-0.903,4.508,3.786,5.227,3.402l1.207-0.644c0,0,0.276,2.279-1.015,2.609
					c-1.291,0.33-1.279,0.21-1.982,1.765c-0.703,1.555-1.78,2.342-4.099,2.252C215.288,298.685,213.651,301.678,212.619,299.977z"/>
			</g>
			<g>
				<path style="fill:#BDDDFF;" d="M213.218,176.118h-41.74v-40.98c0-13.07,10.64-23.71,23.71-23.71h0.9l27.24,47.18
					C227.828,166.388,222.208,176.118,213.218,176.118z"/>
				<g>
					<path style="fill:#C6141C;" d="M163.529,97.301l-29.583,51.24c-4.493,7.782,1.123,17.51,10.109,17.51h59.167
						c8.986,0,14.602-9.727,10.109-17.51l-29.583-51.24C179.254,89.519,168.022,89.519,163.529,97.301z"/>
					<path style="fill:none;stroke:#F2FFFF;stroke-width:2;stroke-miterlimit:10;" d="M144.054,158.988
						c-2.402,0-3.592-1.611-3.99-2.304c-0.402-0.693-1.202-2.53-0.002-4.611l29.584-51.239c1.202-2.082,3.192-2.306,3.992-2.306
						c0.8,0,2.79,0.224,3.992,2.306l29.585,51.239c1.2,2.082,0.4,3.918-0.002,4.611c-0.398,0.693-1.588,2.304-3.99,2.304H144.054z"
						/>
					<g>
						<path style="fill:#F2FFFF;" d="M173.647,115.235c1.503,0,2.781,0.54,3.828,1.622c1.402,1.42,2.104,3.43,2.104,6.033
							c0,1.724-0.299,3.579-0.9,5.564c-0.601,1.985-1.399,3.757-2.396,5.311c-1.133,1.757-2.046,2.636-2.738,2.636
							c-0.677,0-1.63-1.123-2.865-3.372c-0.913-1.655-1.635-3.43-2.167-5.323c-0.533-1.894-0.799-3.625-0.799-5.197
							c0-1.926,0.431-3.542,1.293-4.842C170.072,116.046,171.619,115.235,173.647,115.235z M173.774,139.191
							c1.47,0,2.73,0.55,3.777,1.648c1.047,1.083,1.572,2.348,1.572,3.802c0,1.506-0.54,2.804-1.622,3.889
							c-1.083,1.095-2.375,1.638-3.878,1.638c-1.47,0-2.73-0.497-3.777-1.496c-1.133-1.08-1.698-2.418-1.698-4.005
							c0-1.47,0.499-2.712,1.496-3.727C170.757,139.774,172.133,139.191,173.774,139.191z"/>
					</g>
				</g>
			</g>
			<g>
				<path style="fill:none;stroke:#091A50;stroke-miterlimit:10;stroke-dasharray:3,3;" d="M158.73,173.076
					c-4.702,27.797-30.816,34.453-44.385,28.177c-11.779-5.449-16.972-22.068-8.93-32.255c1.725-2.186,4.246-4.136,7.014-3.838
					c3.196,0.344,5.419,3.762,5.307,6.975c-0.112,3.213-2.028,6.108-4.327,8.355c-7.944,7.765-20.962,9.163-30.992,4.388
					c-10.03-4.775-16.941-14.956-19.054-25.862c-3.452-17.824,6.167-37.375,22.395-45.516c16.228-8.141,37.651-4.165,49.875,9.258"
					/>
				<path style="fill:none;stroke:#091A50;stroke-miterlimit:10;stroke-dasharray:3,3;" d="M348.447,258.74
					c4.387,14.772,18.702,26.022,34.093,26.791c15.391,0.769,30.757-8.997,36.594-23.258c5.838-14.261,1.566-43.102-14.833-46.598
					c-3.274-0.698-8.08,1.049-9.016,4.263c-1.353,4.647,1.794,9.022,6.316,9.608c4.522,0.585,8.263-1.186,11.655-4.233
					c12.783-11.481,21.093-21.766,22.812-36.523c2.351-20.19-8.199-61.828-47.306-64.648"/>
			</g>
		</g>
	</g>
</g>
</svg>
